<?xml version="1.0" encoding="UTF-8"?><svg id="Layer_2" xmlns="http://www.w3.org/2000/svg" xmlns:xlink="http://www.w3.org/1999/xlink" viewBox="0 0 123.47 123.47"><defs><style>.cls-1{fill:#2d3047;}.cls-2{fill:url(#radial-gradient);}</style><radialGradient id="radial-gradient" cx="61.73" cy="19.61" fx="61.73" fy="19.61" r="26.7" gradientUnits="userSpaceOnUse"><stop offset="0" stop-color="#2d3047"/><stop offset=".93" stop-color="#2d3047"/><stop offset="1" stop-color="#2d3047"/></radialGradient></defs><g id="Layer_1-2"><g id="hat"><circle id="center" class="cls-1" cx="61.74" cy="61.74" r="16.38"/><path id="up" class="cls-2" d="m61.73,35.46c5.01,0,9.7,1.37,13.72,3.75l18.54-30.1C82.91,2.3,69.6-1.08,55.65.3c-9.61.95-18.48,4.06-26.19,8.79l18.55,30.12c4.02-2.38,8.71-3.75,13.72-3.75Z"/><path id="right" class="cls-1" d="m88.69,62.42c0,4.93-1.33,9.55-3.64,13.53l29.31,18.05c6.81-11.09,10.19-24.4,8.81-38.34-.95-9.61-4.06-18.48-8.79-26.19l-29.93,18.43c2.69,4.19,4.25,9.17,4.25,14.52Z"/><path id="down" class="cls-1" d="m61.73,89.37c-5.27,0-10.18-1.52-14.33-4.13l-17.93,29.11c11.09,6.81,24.4,10.19,38.34,8.81,9.61-.95,18.48-4.06,26.19-8.79l-17.94-29.13c-4.15,2.61-9.06,4.13-14.33,4.13Z"/><path id="left" class="cls-1" d="m34.78,62.42c0-5.35,1.56-10.33,4.25-14.52L9.11,29.47C2.3,40.56-1.08,53.87.3,67.82c.95,9.61,4.06,18.48,8.79,26.19l29.32-18.06c-2.31-3.98-3.64-8.59-3.64-13.53Z"/></g></g></svg>