<svg width="573" height="159" viewBox="0 0 573 159" fill="none" xmlns="http://www.w3.org/2000/svg">
<path d="M83.7122 31.4881C98.5668 36.3599 111.671 45.0565 121.933 56.3855C123.624 54.8719 125.628 53.9845 127.786 53.9845C128.42 53.9845 129.038 54.0762 129.64 54.2218C133.439 43.6187 134.789 32.196 133.054 20.5819C133.044 20.5101 133.024 20.4423 133.014 20.3705C126.081 14.1207 118.038 9.08341 109.216 5.57764C99.7952 12.5712 91.1385 21.2838 83.7122 31.4881Z" fill="#FF5722"/>
<path d="M47.7949 27.4898C50.511 27.2346 53.251 27.0571 56.0348 27.0571C63.0903 27.0571 69.9443 27.8946 76.5211 29.4501C84.1229 19.1043 92.999 10.3079 102.643 3.30237C95.4698 1.16062 87.87 0 79.999 0C70.8277 0 62.0274 1.5774 53.8353 4.44504C49.4341 10.4037 45.7967 16.9486 42.9829 23.9162C45.0589 24.6401 46.7539 25.8745 47.7949 27.4898Z" fill="#FF5722"/>
<path d="M38.9946 41.3255C38.6236 41.4133 38.2547 41.4851 37.8878 41.5449C37.0064 46.5423 36.5198 51.6753 36.5198 56.926C36.5198 72.0479 40.3646 86.2525 47.061 98.6942C48.5048 98.5067 50.0044 98.5067 51.52 98.6743C52.3257 83.0538 56.2183 66.871 63.5709 51.2406C65.926 46.2312 68.5623 41.4691 71.422 36.9443C65.0585 35.4945 58.4339 34.7288 51.6277 34.7288C50.4093 34.7288 49.2068 34.7986 48.0003 34.8524C46.4827 37.8138 43.1923 40.3264 38.9946 41.3255Z" fill="#FF5722"/>
<path d="M78.6708 38.9563C75.9268 43.3435 73.3862 47.9501 71.1109 52.79C63.6287 68.6956 59.742 85.1675 59.0381 101.041C61.9396 102.619 64.2768 104.802 65.918 107.293C87.5469 102.686 105.762 91.0065 117.865 75.5017C117.244 73.5873 116.891 71.4675 116.891 69.23C116.891 67.4173 117.131 65.6843 117.543 64.073C107.13 52.5746 93.7947 43.7902 78.6708 38.9563Z" fill="#FF5722"/>
<path d="M35.0861 107.189C36.0233 104.972 37.5309 103.145 39.3975 101.739C32.7369 89.3175 28.932 75.1348 28.932 60.0528C28.932 53.5438 29.7097 47.2262 31.0558 41.122C29.287 40.5517 27.7794 39.6184 26.6905 38.396C20.1137 40.3184 13.84 42.9467 7.98709 46.2451C3.38651 56.2818 0.800049 67.4373 0.800049 79.201C0.800049 85.9613 1.65157 92.5201 3.24492 98.7819C12.6615 103.889 23.2805 107.311 34.5556 108.707C34.7012 108.196 34.8747 107.69 35.0861 107.189Z" fill="#FF5722"/>
<path d="M127.786 84.4716C126.22 84.4716 124.733 84.003 123.389 83.1694C110.851 99.5497 91.5414 111.778 68.5744 116.056C68.5385 117.701 68.2215 119.342 67.5574 120.915C67.2283 121.691 66.8156 122.409 66.3589 123.093C81.6443 136.641 101.63 144.985 123.584 145.32C129.85 141.182 135.489 136.177 140.335 130.477C140.507 128.248 140.626 126.002 140.626 123.727C140.626 109.339 137.14 95.7906 131.07 83.7677C130.033 84.2224 128.93 84.4716 127.786 84.4716Z" fill="#FF5722"/>
<path d="M61.0244 128.154C63.222 138.981 67.0748 149.091 72.4511 158.031C74.9378 158.264 77.4525 158.4 80.0011 158.4C93.9524 158.4 107.05 154.781 118.435 148.449C118.074 148.453 117.721 148.483 117.362 148.483C95.9386 148.481 76.3218 140.833 61.0244 128.154Z" fill="#FF5722"/>
<path d="M45.4457 127.961C39.856 125.6 35.9514 121.099 34.5854 116.183C23.9484 114.257 13.9934 110.508 5.20508 105.249C14.4082 131.674 37.2077 151.721 65.226 157.01C60.1767 148.754 56.4656 139.465 54.1503 129.536C51.3206 129.674 48.3373 129.183 45.4457 127.961Z" fill="#FF5722"/>
<path d="M34.779 23.6212C35.5228 23.4437 36.2627 23.328 36.9926 23.2562C39.5551 17.6865 42.656 12.4179 46.2655 7.53809C31.9134 14.3063 19.9283 25.2544 11.8718 38.8189C16.0237 36.4398 20.393 34.4057 24.9277 32.7087C25.4841 28.6824 29.3867 24.9054 34.779 23.6212Z" fill="#FF5722"/>
<path d="M159.2 79.201C159.2 58.0348 150.88 38.8228 137.354 24.6143C137.651 26.0082 137.912 27.4181 138.126 28.8459C139.671 39.1997 138.762 49.404 135.856 59.0119C137.605 61.716 138.682 65.2936 138.682 69.2301C138.682 72.6023 137.89 75.7092 136.564 78.2339C141.97 89.7164 145.029 102.523 145.029 116.058C145.029 119.093 144.86 122.086 144.563 125.045C153.766 112.103 159.2 96.2912 159.2 79.201Z" fill="#FF5722"/>
<path d="M48.2528 121.31C52.9284 123.286 58.091 121.643 59.7838 117.639C61.4765 113.635 59.0584 108.786 54.3828 106.81C49.7071 104.833 44.5445 106.476 42.8518 110.48C41.159 114.485 43.5771 119.333 48.2528 121.31Z" fill="#FF5722"/>
<path d="M127.786 75.6874C130.334 75.6874 132.4 72.7955 132.4 69.2282C132.4 65.6609 130.334 62.769 127.786 62.769C125.237 62.769 123.171 65.6609 123.171 69.2282C123.171 72.7955 125.237 75.6874 127.786 75.6874Z" fill="#FF5722"/>
<path d="M37.7821 36.2383C40.5654 35.5747 42.4195 33.3503 41.9235 31.2698C41.4275 29.1894 38.7692 28.0408 35.986 28.7043C33.2028 29.3679 31.3486 31.5923 31.8446 33.6727C32.3406 35.7532 34.9989 36.9018 37.7821 36.2383Z" fill="#FF5722"/>
<path d="M215.319 92.4393C215.319 93.6311 215.2 96.1341 213.65 98.9946C210.015 105.609 202.446 106.503 200.42 106.742C199.05 106.921 197.619 107.04 196.189 107.04C187.846 107.04 183.138 104.239 180.337 101.974C179.205 101.021 178.669 100.425 177 98.4582L184.986 93.4524C185.164 93.6311 185.999 94.5846 186.833 95.2402C189.574 97.5047 193.627 98.7562 197.143 98.7562C197.619 98.7562 199.05 98.7562 200.42 98.339C200.718 98.2795 204.89 97.0876 204.89 93.8695C204.89 89.9959 199.288 89.8767 195.534 89.3404C193.567 89.102 191.541 88.7445 189.574 88.2677C186.535 87.493 183.734 86.3607 181.648 83.8578C181.231 83.381 180.397 82.3083 179.86 80.7589C179.682 80.163 179.324 78.7923 179.324 77.0641C179.324 76.7065 179.384 75.3359 179.563 74.144C180.039 71.4623 181.172 69.3169 183.198 67.4099C185.284 65.4433 189.395 63 196.308 63C198.871 63 204.473 63.298 210.194 67.1716C211.624 68.1251 212.458 68.8402 214.842 70.926L207.095 76.4682C204.771 74.2036 203.162 72.8926 200.003 71.8795C199.467 71.7603 197.858 71.2835 196.07 71.2835C191.779 71.2835 189.813 73.7865 189.813 75.753C189.813 76.8853 190.409 77.66 190.707 77.958C192.137 79.5074 194.461 79.4479 198.394 80.0438C200.778 80.4014 203.102 80.8781 205.426 81.4144C206.916 81.7124 212.339 82.7851 214.484 87.9102C214.782 88.6849 215.319 90.2939 215.319 92.4393ZM249.466 106.086H240.348V89.8172C240.348 87.4334 240.467 84.2749 238.203 82.7255C237.428 82.1892 236.534 81.9508 235.64 81.9508C235.163 81.9508 233.972 82.07 232.899 82.7851C230.932 84.1558 230.694 86.3011 230.694 90.5919V106.086H221.516V64.0131H230.694L230.753 78.256C230.932 78.0772 231.707 77.1833 232.541 76.5874C235.402 74.3824 238.262 74.144 239.573 74.144C243.745 74.144 246.129 76.1106 247.142 77.2429C247.797 77.958 248.334 78.8519 248.632 79.7458C249.168 81.1165 249.466 82.6659 249.466 85.6456V106.086ZM284.805 106.086H275.806V103.285C275.151 103.762 274.555 104.179 273.899 104.596C272.767 105.371 270.145 106.921 266.271 106.921C260.67 106.921 258.107 103.881 257.094 101.795C256.438 100.484 256.081 98.935 256.081 97.4451C256.081 91.8433 261.087 89.1616 262.457 88.5657C264.781 87.5526 269.013 86.7183 274.912 85.6456V83.9174C274.912 82.8447 274.734 80.163 271.396 80.163C268.715 80.163 267.463 81.4144 266.986 82.4275C266.867 82.6659 266.688 83.1427 266.569 83.7982H257.392C257.511 82.5467 257.571 79.865 259.895 77.5409C262.457 75.0379 265.854 74.5612 266.927 74.3824C268.715 74.144 270.205 74.144 270.92 74.144C275.27 74.144 281.17 75.1571 283.256 79.6266C283.613 80.4609 283.911 81.2953 283.911 83.0831V101.259C283.911 103.941 284.03 104.954 284.805 106.086ZM274.912 91.1878L269.013 93.1544C268.655 93.2736 268.298 93.3928 267.94 93.5716C265.675 94.5251 265.079 95.8361 265.079 97.028C265.079 97.2068 265.139 97.8623 265.437 98.4582C265.795 99.0542 266.688 100.186 268.595 100.186C270.264 100.186 271.694 99.233 272.111 98.935C274.793 97.028 274.912 94.1079 274.912 91.1878ZM310.073 82.7255L307.033 83.2023C306.735 83.2618 305.305 83.4406 304.173 83.8578C301.73 84.6921 301.312 86.2415 301.312 88.5657V106.086H292.195V74.9783H301.074V78.1964C301.849 77.5409 302.683 76.7065 304.709 75.8722C307.212 74.8591 308.94 74.74 310.073 74.6208V82.7255ZM344.041 92.4393H321.813C321.813 92.7372 321.753 93.4524 321.932 94.2867C322.647 97.9219 325.209 100.186 328.904 100.186C329.441 100.186 330.632 100.127 331.884 99.6501C334.983 98.5774 336.353 95.419 336.771 94.6442L343.683 98.2199C342.432 100.067 341.777 100.902 341.061 101.736C336.473 106.801 330.513 107.218 328.189 107.218C327.236 107.218 325.031 107.159 322.587 106.384C315.674 104.239 312.456 98.1603 312.456 91.1282C312.456 89.2212 312.576 83.4406 316.449 78.9711C318.356 76.8257 321.634 74.0248 328.428 74.0248C330.513 74.0248 336.711 74.2632 340.585 79.6862C344.101 84.5133 343.981 90.9494 344.041 92.4393ZM334.566 86.7183C334.446 85.7052 334.268 82.5467 331.169 81.1761C329.917 80.5801 328.904 80.5801 328.368 80.5801C324.733 80.5801 323.064 83.2618 322.587 84.3345C322.349 84.8709 322.111 85.5264 321.872 86.7183H334.566ZM402.741 77.958C402.741 79.3287 402.562 82.9639 400.238 86.3011C396.305 91.9029 390.345 92.3201 384.267 92.3201H377.235V106.086H366.687V64.0131H387.544C391.537 64.0131 395.292 64.4898 398.51 67.2907C398.927 67.6483 399.702 68.3038 400.417 69.3765C401.311 70.7472 402.741 73.7865 402.741 77.958ZM392.312 77.8984C392.312 75.8722 391.716 74.8591 391.18 74.0844C389.511 71.7603 386.472 71.7603 383.969 71.7603H377.235V84.5133H383.611C385.459 84.5133 386.233 84.5133 387.187 84.3345C390.882 83.7386 392.372 81.474 392.312 77.8984ZM425.565 82.7255L422.526 83.2023C422.228 83.2618 420.798 83.4406 419.665 83.8578C417.222 84.6921 416.805 86.2415 416.805 88.5657V106.086H407.687V74.9783H416.567V78.1964C417.341 77.5409 418.176 76.7065 420.202 75.8722C422.705 74.8591 424.433 74.74 425.565 74.6208V82.7255ZM461.381 90.5323C461.381 97.5643 458.044 101.617 455.898 103.405C454.111 104.894 450.475 107.04 444.635 107.04C443.026 107.04 436.709 106.742 432.418 102.57C430.571 100.782 427.949 96.9684 427.949 90.4727C427.949 88.6849 428.068 83.6194 431.584 79.3883C433.73 76.8257 438.02 73.6077 445.887 74.0844C449.522 74.2632 452.74 75.0975 455.66 77.4217C459.534 80.5801 461.381 85.5264 461.381 90.5323ZM452.084 90.8302C452.084 86.1223 450.595 83.7386 448.807 82.4871C447.972 81.8912 446.721 81.2953 444.278 81.2953C443.86 81.2953 442.132 81.4144 440.821 82.1892C439.153 83.1427 437.186 85.8244 437.186 90.4131C437.186 93.4524 438.199 95.7169 438.795 96.6704C439.51 97.7431 441.298 99.7097 444.754 99.7097C449.82 99.7097 452.084 95.4785 452.084 90.8302ZM512.632 106.086H503.514V89.7576C503.514 86.5395 503.514 84.6921 502.679 83.381C501.964 82.1892 500.534 81.5932 499.223 81.5932C498.448 81.5932 496.303 81.772 495.171 83.7982C494.455 85.0497 494.515 86.3607 494.515 89.1616V106.086H485.397V87.6122C485.397 84.6325 484.98 83.3214 483.609 82.4275C482.835 81.8912 481.881 81.6528 480.928 81.6528C480.511 81.6528 479.319 81.6528 478.306 82.4275C476.399 83.8578 476.339 86.3011 476.339 88.3273V106.086H467.281V74.9783H476.339L476.399 78.1964C476.935 77.5409 477.293 77.1237 477.948 76.5874C479.14 75.6339 481.404 74.144 485.159 74.144C485.874 74.144 489.092 74.2036 491.357 75.6339C492.31 76.2298 493.085 77.0045 493.86 77.7792C494.992 76.8257 495.409 76.5278 496.065 76.1106C497.137 75.4551 499.7 74.144 503.097 74.144C504.169 74.144 508.52 74.2036 511.082 77.5409C512.572 79.3883 512.632 81.3548 512.632 85.8244V106.086ZM550.95 90.4727C550.891 95.7765 549.222 99.2925 548.09 101.08C546.362 103.702 544.216 105.073 543.203 105.55C542.19 106.027 540.343 106.682 537.423 106.682C534.145 106.682 532.476 105.729 529.795 104.06V116.873H520.498V74.9783H528.662L528.722 78.0176C529.199 77.4217 529.377 77.1237 530.033 76.6469C531.165 75.6935 533.609 74.2632 537.423 74.2632C539.21 74.2632 543.382 74.5612 546.779 78.1964C549.937 81.5336 550.95 86.1223 550.95 90.4727ZM542.13 90.3535C542.13 89.4596 542.25 85.4072 539.985 82.7255C539.27 81.8912 538.316 81.2357 537.244 80.9377C536.648 80.7589 536.171 80.7589 535.933 80.7589C532.536 80.7589 529.377 83.8578 529.377 90.5919C529.377 91.2474 529.258 95.0018 530.986 97.5643C531.463 98.2199 532.059 98.8158 532.774 99.233C533.191 99.5309 534.264 100.067 535.694 100.067C538.853 100.067 540.104 97.8027 540.641 96.8492C541.356 95.5381 542.13 93.6907 542.13 90.3535ZM573 81.3548H566.921V95.2998C566.921 96.5512 566.862 97.2664 567.16 97.8027C567.696 98.8158 569.126 98.8158 569.305 98.8158C570.378 98.8158 571.451 98.7562 572.523 98.7562V105.848C571.927 105.967 569.782 106.325 567.696 106.325C567.041 106.325 566.385 106.325 565.789 106.265C564.955 106.205 562.214 106.265 560.128 104.358C557.744 102.272 557.863 99.1138 557.863 96.2533V81.2953H553.334V75.6935H557.863V65.9797H566.921V75.753H573V81.3548Z" fill="#303841"/>
</svg>

