<?xml version="1.0" encoding="UTF-8"?><svg id="Layer_2" xmlns="http://www.w3.org/2000/svg" xmlns:xlink="http://www.w3.org/1999/xlink" viewBox="0 0 259.11 545.61"><defs><style>.cls-1{opacity:.55;}.cls-1,.cls-2,.cls-3,.cls-4,.cls-5{fill:none;}.cls-2{opacity:.6;}.cls-6{fill:url(#linear-gradient-2);stroke:#fff;}.cls-6,.cls-7,.cls-8,.cls-9,.cls-10,.cls-11{stroke-width:.5px;}.cls-6,.cls-7,.cls-8,.cls-9,.cls-10,.cls-11,.cls-3,.cls-12,.cls-4{stroke-miterlimit:10;}.cls-7{fill:url(#linear-gradient-3);}.cls-7,.cls-11{stroke:#002d26;}.cls-13{fill:url(#linear-gradient);}.cls-8{fill:rgba(0,120,102,.7);}.cls-8,.cls-9,.cls-10{stroke:#00b499;}.cls-14{fill:#00f0cc;}.cls-15{fill:#002923;}.cls-16{fill:#003029;}.cls-17{fill:#00d6b6;}.cls-18{fill:#00c4a7;}.cls-19{fill:#005e4b;}.cls-20{fill:#006e62;}.cls-21,.cls-12{fill:#007d6a;}.cls-9{fill:rgba(51,147,133,.5);}.cls-10{fill:#007866;}.cls-11{fill:#00443a;}.cls-3{stroke:url(#linear-gradient-4);}.cls-3,.cls-4{stroke-width:7px;}.cls-22{fill:url(#radial-gradient-3);}.cls-23{fill:url(#radial-gradient-4);}.cls-24{fill:url(#radial-gradient-2);}.cls-12{stroke:#00f0cc;}.cls-25{fill:url(#linear-gradient-8);}.cls-26{fill:url(#linear-gradient-9);}.cls-27{fill:url(#linear-gradient-6);}.cls-28{fill:url(#linear-gradient-7);}.cls-29{fill:url(#linear-gradient-5);}.cls-30{fill:url(#radial-gradient);}.cls-31{fill:url(#linear-gradient-14);}.cls-32{fill:url(#linear-gradient-15);}.cls-33{fill:url(#linear-gradient-16);}.cls-34{fill:url(#linear-gradient-17);}.cls-35{fill:url(#linear-gradient-13);}.cls-36{fill:url(#linear-gradient-12);}.cls-37{fill:url(#linear-gradient-10);}.cls-38{fill:url(#linear-gradient-11);}.cls-4{stroke:#006e62;}.cls-5{opacity:.15;}</style><linearGradient id="linear-gradient" x1="0" y1="287.52" x2="251.2" y2="287.52" gradientUnits="userSpaceOnUse"><stop offset="0" stop-color="#00d1b2" stop-opacity=".5"/><stop offset=".1" stop-color="#00ccae" stop-opacity=".48"/><stop offset=".2" stop-color="#00c0a4" stop-opacity=".42"/><stop offset=".31" stop-color="#00ac94" stop-opacity=".32"/><stop offset=".41" stop-color="#00907d" stop-opacity=".17"/><stop offset=".52" stop-color="#006e62" stop-opacity="0"/></linearGradient><linearGradient id="linear-gradient-2" x1="205.08" y1="15.79" x2="92.03" y2="173.17" gradientUnits="userSpaceOnUse"><stop offset=".05" stop-color="#006e62"/><stop offset=".08" stop-color="#007265"/><stop offset=".12" stop-color="#008070"/><stop offset=".16" stop-color="#009783"/><stop offset=".2" stop-color="#00b89c"/><stop offset=".23" stop-color="#00d6b4"/><stop offset=".52" stop-color="#006e62"/><stop offset=".55" stop-color="#007467"/><stop offset=".6" stop-color="#008777"/><stop offset=".65" stop-color="#00a790"/><stop offset=".71" stop-color="#00d2b3"/><stop offset=".75" stop-color="#00f0cc"/><stop offset=".81" stop-color="#00b99f"/><stop offset=".86" stop-color="#00907d"/><stop offset=".9" stop-color="#007769"/><stop offset=".92" stop-color="#006e62"/></linearGradient><linearGradient id="linear-gradient-3" x1="183.52" y1="165.69" x2="247.44" y2="129.96" gradientUnits="userSpaceOnUse"><stop offset="0" stop-color="#003029" stop-opacity="0"/><stop offset=".45" stop-color="#003029" stop-opacity=".6"/><stop offset="1" stop-color="#003029" stop-opacity=".4"/></linearGradient><linearGradient id="linear-gradient-4" x1="158.5" y1="131.75" x2="253.26" y2="131.75" gradientUnits="userSpaceOnUse"><stop offset="0" stop-color="#003029" stop-opacity="0"/><stop offset=".07" stop-color="#00362e" stop-opacity=".02"/><stop offset=".14" stop-color="#004a3f" stop-opacity=".08"/><stop offset=".23" stop-color="#006a5a" stop-opacity=".18"/><stop offset=".32" stop-color="#009680" stop-opacity=".32"/><stop offset=".41" stop-color="#00cfb0" stop-opacity=".5"/><stop offset=".45" stop-color="#00f0cc" stop-opacity=".6"/><stop offset="1" stop-color="#003029" stop-opacity="0"/></linearGradient><radialGradient id="radial-gradient" cx="149.42" cy="84.61" fx="149.42" fy="84.61" r="111.16" gradientUnits="userSpaceOnUse"><stop offset=".26" stop-color="#00635c"/><stop offset=".68" stop-color="#006b62" stop-opacity=".96"/><stop offset=".83" stop-color="#008a7b" stop-opacity=".8"/><stop offset=".94" stop-color="#00c0a6" stop-opacity=".54"/><stop offset="1" stop-color="#00f0cc" stop-opacity=".3"/></radialGradient><linearGradient id="linear-gradient-5" x1="89.63" y1="156.28" x2="229.26" y2="16.65" gradientUnits="userSpaceOnUse"><stop offset="0" stop-color="#00f0cc" stop-opacity="0"/><stop offset=".6" stop-color="#00a992" stop-opacity="0"/><stop offset=".7" stop-color="#005952" stop-opacity="0"/><stop offset=".85" stop-color="#0b4847" stop-opacity=".47"/><stop offset="1" stop-color="#18353b"/></linearGradient><linearGradient id="linear-gradient-6" x1="37.96" y1="77.21" x2="259.11" y2="77.21" gradientUnits="userSpaceOnUse"><stop offset="0" stop-color="#18353b"/><stop offset=".04" stop-color="#123d40"/><stop offset=".19" stop-color="#005952"/><stop offset=".2" stop-color="#005e56" stop-opacity=".96"/><stop offset=".25" stop-color="#008b7b" stop-opacity=".66"/><stop offset=".32" stop-color="#00b098" stop-opacity=".42"/><stop offset=".4" stop-color="#00cdaf" stop-opacity=".23"/><stop offset=".49" stop-color="#00e1c0" stop-opacity=".1"/><stop offset=".63" stop-color="#00ecc9" stop-opacity=".02"/><stop offset="1" stop-color="#00f0cc" stop-opacity="0"/></linearGradient><linearGradient id="linear-gradient-7" x1="138.44" y1="154.33" x2="166.59" y2="94.72" gradientUnits="userSpaceOnUse"><stop offset="0" stop-color="#00d1b2"/><stop offset=".22" stop-color="#00cdaf"/><stop offset=".41" stop-color="#00c2a6"/><stop offset=".6" stop-color="#00af97"/><stop offset=".79" stop-color="#009682"/><stop offset=".97" stop-color="#007467"/><stop offset="1" stop-color="#006e62"/></linearGradient><radialGradient id="radial-gradient-2" cx="151.22" cy="123.47" fx="151.22" fy="123.47" r="28.11" gradientUnits="userSpaceOnUse"><stop offset="0" stop-color="#00ceae" stop-opacity="0"/><stop offset=".48" stop-color="#00a78f" stop-opacity=".12"/><stop offset="1" stop-color="#006e62" stop-opacity=".3"/></radialGradient><radialGradient id="radial-gradient-3" cx="151.15" cy="120.58" fx="151.15" fy="120.58" r="7.33" gradientUnits="userSpaceOnUse"><stop offset="0" stop-color="#00ceae" stop-opacity="0"/><stop offset=".56" stop-color="#00c8a9" stop-opacity=".02"/><stop offset=".76" stop-color="#00b49a" stop-opacity=".08"/><stop offset=".91" stop-color="#00927e" stop-opacity=".19"/><stop offset="1" stop-color="#006e62" stop-opacity=".3"/></radialGradient><radialGradient id="radial-gradient-4" cx="151.14" cy="121.71" fx="151.14" fy="121.71" r="28.28" gradientUnits="userSpaceOnUse"><stop offset=".73" stop-color="#00f0cc" stop-opacity="0"/><stop offset=".78" stop-color="#00ebc8" stop-opacity=".03"/><stop offset=".83" stop-color="#00debd" stop-opacity=".14"/><stop offset=".88" stop-color="#00c7ab" stop-opacity=".31"/><stop offset=".93" stop-color="#00a791" stop-opacity=".55"/><stop offset=".98" stop-color="#007f70" stop-opacity=".87"/><stop offset="1" stop-color="#006e62"/></radialGradient><linearGradient id="linear-gradient-8" x1="100.06" y1="75.23" x2="100.06" y2="70.09" gradientTransform="translate(4.75 .3) rotate(-.22) scale(.94 1) skewX(-.24)" gradientUnits="userSpaceOnUse"><stop offset="0" stop-color="#18203b"/><stop offset=".14" stop-color="#106778"/><stop offset=".21" stop-color="#0d8391"/><stop offset=".25" stop-color="#0a9a9d"/><stop offset=".3" stop-color="#07b4ab"/><stop offset=".36" stop-color="#04cab7"/><stop offset=".43" stop-color="#02dbc0"/><stop offset=".52" stop-color="#01e7c7"/><stop offset=".65" stop-color="#00eeca"/><stop offset="1" stop-color="#00f0cc"/></linearGradient><linearGradient id="linear-gradient-9" x1="100.06" y1="71.1" x2="100.06" y2="66.02" xlink:href="#linear-gradient-8"/><linearGradient id="linear-gradient-10" x1="100.06" y1="67.02" x2="100.06" y2="61.99" xlink:href="#linear-gradient-8"/><linearGradient id="linear-gradient-11" x1="100.06" y1="63" x2="100.06" y2="58.02" xlink:href="#linear-gradient-8"/><linearGradient id="linear-gradient-12" x1="100.06" y1="59.03" x2="100.06" y2="54.11" xlink:href="#linear-gradient-8"/><linearGradient id="linear-gradient-13" x1="100.06" y1="55.11" x2="100.06" y2="50.24" xlink:href="#linear-gradient-8"/><linearGradient id="linear-gradient-14" x1="100.06" y1="51.25" x2="100.06" y2="46.43" xlink:href="#linear-gradient-8"/><linearGradient id="linear-gradient-15" x1="100.06" y1="47.43" x2="100.06" y2="42.67" xlink:href="#linear-gradient-8"/><linearGradient id="linear-gradient-16" x1="123.24" y1="29.43" x2="97.52" y2="29.43" gradientTransform="translate(138.35 -50.83) rotate(90) scale(1 .94) skewX(.21)" gradientUnits="userSpaceOnUse"><stop offset="0" stop-color="#000"/><stop offset=".06" stop-color="#000403"/><stop offset=".12" stop-color="#00100d"/><stop offset=".18" stop-color="#00241f"/><stop offset=".24" stop-color="#004137"/><stop offset=".3" stop-color="#006657"/><stop offset=".36" stop-color="#00937d"/><stop offset=".42" stop-color="#00c8aa"/><stop offset=".46" stop-color="#00f0cc"/><stop offset=".47" stop-color="#00f0cc"/><stop offset=".58" stop-color="#00f0cc"/><stop offset=".61" stop-color="#00c3a5"/><stop offset=".64" stop-color="#00957f"/><stop offset=".68" stop-color="#006d5d"/><stop offset=".72" stop-color="#004b40"/><stop offset=".76" stop-color="#002f28"/><stop offset=".81" stop-color="#001a16"/><stop offset=".85" stop-color="#000b09"/><stop offset=".91" stop-color="#000202"/><stop offset="1" stop-color="#000"/></linearGradient><linearGradient id="linear-gradient-17" x1="123.24" y1="54.38" x2="97.52" y2="54.38" xlink:href="#linear-gradient-16"/></defs><g id="vkn_gladiator"><g id="greebles"><path class="cls-16" d="m200.41,268.72l-6.32,10.59c-.41.69-.21,1.59.46,2.04l9.78,6.47,13.02,8.98c.69.47.86,1.41.39,2.1l-1.49,2.18c-.46.67-.3,1.58.35,2.07l7.81,5.8c.91.67,1.44,1.73,1.44,2.86v2.07c0,.77-.25,1.51-.71,2.13l-43.36,58.14c-.19.26-.3.58-.3.9v16.47c0,.84.68,1.51,1.51,1.51h2.44c.27,0,.54.07.77.21l.7.41c5.16,3.04,8.6,8.31,9.3,14.25l1.06,8.9c0,.06.01.12.01.18v65.21c0,1.89-.39,3.77-1.14,5.51l-2.99,6.93c-1.78,4.13-4.2,7.96-7.17,11.34l-4.12,4.7c-.24.28-.38.63-.38,1v19.35c0,.34-.11.67-.32.94l-1.97,2.5c-5.56,7.05-14.04,11.17-23.02,11.17h-50.5c-8.87,0-17.26-4.02-22.82-10.93l-2.2-2.74c-.22-.27-.33-.6-.33-.95v-1.35c0-.84-.68-1.51-1.51-1.51h0c-.84,0-1.51-.68-1.51-1.51v-4.83c0-1.01-.69-1.88-1.67-2.11l-25.38-5.96c-7.7-1.81-15.59-2.72-23.5-2.72h-9.43c-.84,0-1.51.68-1.51,1.51v1.01c0,.84-.68,1.51-1.51,1.51H2.71c-1.5,0-2.71-1.21-2.71-2.71v-27.64c0-5.84,2.87-11.31,7.67-14.63l4.45-3.08c.62-.43,1.02-1.12,1.09-1.87l.33-3.71c.87-9.8,7.87-17.97,17.42-20.34l7.12-1.76c2.4-.59,4.85-.89,7.32-.89h1.98c.68,0,1.34-.13,1.97-.39l7.42-3.04c3.13-1.28,6.48-1.95,9.87-1.95h9.6c.84,0,1.51-.68,1.51-1.51v-99.37l3.43-116.91,2.22-61.17.08-6.18c.03-2.37-.86-4.67-2.49-6.4l-2.96-3.16s-.07-.07-.11-.11l-29.74-25.71-1.89-2.35-1.51-9.88c-.02-.15-.02-.3,0-.45l3.31-22.79,2.16-10.89c3.62-18.2,17.9-32.39,36.12-35.89h0c2.84-.55,5.72-.82,8.61-.82h99.45c2.24,0,4.47.16,6.69.49l4.19.62c23.14,3.7,36.96,19.07,39.55,39.33l.9,7.03,1.15,8.86c1.18,9.04,1.77,18.15,1.77,27.27v40.66c0,.28.23.51.51.51h2.03v1.99c0,12.67-8.82,23.64-21.2,26.36l-13.86,3.04c-.94.21-1.89.38-2.85.51l-17.06,2.34c-2.5.34-5.01.51-7.53.51h-2.78c-6.28,0-11.28,5.25-10.97,11.52l2.13,43.19c.09,1.86.8,3.63,2,5.04l2.49,2.54c.45.46.94.86,1.48,1.22.56.37,1.44.9,1.44.9l14.43,9.35c2,1.3,2.66,3.93,1.5,6.01h0Z"/><path class="cls-13" d="m200.41,268.72l-6.32,10.59c-.41.69-.21,1.59.46,2.04l9.78,6.47,13.02,8.98c.69.47.86,1.41.39,2.1l-1.49,2.18c-.46.67-.3,1.58.35,2.07l7.81,5.8c.91.67,1.44,1.73,1.44,2.86v2.07c0,.77-.25,1.51-.71,2.13l-43.36,58.14c-.19.26-.3.58-.3.9v16.47c0,.84.68,1.51,1.51,1.51h2.44c.27,0,.54.07.77.21l.7.41c5.16,3.04,8.6,8.31,9.3,14.25l1.06,8.9c0,.06.01.12.01.18v65.21c0,1.89-.39,3.77-1.14,5.51l-2.99,6.93c-1.78,4.13-4.2,7.96-7.17,11.34l-4.12,4.7c-.24.28-.38.63-.38,1v19.35c0,.34-.11.67-.32.94l-1.97,2.5c-5.56,7.05-14.04,11.17-23.02,11.17h-50.5c-8.87,0-17.26-4.02-22.82-10.93l-2.2-2.74c-.22-.27-.33-.6-.33-.95v-1.35c0-.84-.68-1.51-1.51-1.51h0c-.84,0-1.51-.68-1.51-1.51v-4.83c0-1.01-.69-1.88-1.67-2.11l-25.38-5.96c-7.7-1.81-15.59-2.72-23.5-2.72h-9.43c-.84,0-1.51.68-1.51,1.51v1.01c0,.84-.68,1.51-1.51,1.51H2.71c-1.5,0-2.71-1.21-2.71-2.71v-27.64c0-5.84,2.87-11.31,7.67-14.63l4.45-3.08c.62-.43,1.02-1.12,1.09-1.87l.33-3.71c.87-9.8,7.87-17.97,17.42-20.34l7.12-1.76c2.4-.59,4.85-.89,7.32-.89h1.98c.68,0,1.34-.13,1.97-.39l7.42-3.04c3.13-1.28,6.48-1.95,9.87-1.95h9.6c.84,0,1.51-.68,1.51-1.51v-99.37l3.43-116.91,2.22-61.17.08-6.18c.03-2.37-.86-4.67-2.49-6.4l-2.96-3.16s-.07-.07-.11-.11l-29.74-25.71-1.89-2.35-1.51-9.88c-.02-.15-.02-.3,0-.45l3.31-22.79,2.16-10.89c3.62-18.2,17.9-32.39,36.12-35.89h0c2.84-.55,5.72-.82,8.61-.82h99.45c2.24,0,4.47.16,6.69.49l4.19.62c23.14,3.7,36.96,19.07,39.55,39.33l.9,7.03,1.15,8.86c1.18,9.04,1.77,18.15,1.77,27.27v40.66c0,.28.23.51.51.51h2.03v1.99c0,12.67-8.82,23.64-21.2,26.36l-13.86,3.04c-.94.21-1.89.38-2.85.51l-17.06,2.34c-2.5.34-5.01.51-7.53.51h-2.78c-6.28,0-11.28,5.25-10.97,11.52l2.13,43.19c.09,1.86.8,3.63,2,5.04l2.49,2.54c.45.46.94.86,1.48,1.22.56.37,1.44.9,1.44.9l14.43,9.35c2,1.3,2.66,3.93,1.5,6.01h0Z"/><g class="cls-5"><path class="cls-12" d="m129.05,69.01c1.49,15.68-11.59,29.51-29.34,29.51s-31.03-13.83-29.77-29.51c1.16-14.34,14.27-25.1,29.37-25.1s28.37,10.76,29.74,25.1Z"/><path class="cls-14" d="m125.97,71.96c1.34,14.11-10.35,26.57-26.24,26.57s-27.77-12.45-26.63-26.57c1.04-12.9,12.77-22.58,26.27-22.58s25.37,9.68,26.6,22.58Z"/></g><path class="cls-6" d="m166.23,89.59c-11.3,0-22.61,0-33.91,0-.85,0-1.64.46-2.06,1.2h0c-5.27,9.38-14.87,15.53-25.6,16.39h0s-8.14.05-8.14.05c-2.45.01-4.74,1.21-6.15,3.21l-4.69,6.64c-1.19,1.68-3.12,2.68-5.17,2.68h-23.7l-8.15-7.64-1.5-1.8-2.05-9.95h5.58c.57,0,1.11.22,1.52.61l6.21,8.79c1.85,1.76,4.3,2.74,6.85,2.74h15.93c1.67,0,3.24-.8,4.22-2.15l4.83-6.64c1.5-2.06,3.89-3.28,6.44-3.28h8.09c10.66-1.71,19.91-8.31,25-17.83l.29-.54c.47-.88,1.38-1.42,2.37-1.42h35.4c1.75,0,3.17-1.42,3.17-3.17v-.24c0-16.78,14.06-30.38,31.41-30.38s31.41,13.6,31.41,30.38v8.34c0,1.58,1.28,2.85,2.85,2.85h12.22v4.43h-15.75c-1.58,0-2.85-1.28-2.85-2.85v-9.46c0-14.85-12.62-26.88-28.19-26.88s-28.19,12.04-28.19,26.88v4.24c0,2.63-2.13,4.76-4.76,4.76h-2.91Z"/><path class="cls-7" d="m248.24,151.52v-39.66h-15.97l-9.59.36c-12.29.21-24.06,5.81-32.51,14.86l-4.43,4.75s0,0,0,0c0,0,0,0,0,0,0,0,0,0,0,0,0,0,0,0,0,0-.28,2.62-.87,5.09-1.72,7.39-.01.03-.02.06-.03.08-.27.73-.58,1.45-.91,2.15-.02.05-.04.09-.06.14-.32.68-.68,1.35-1.05,2-.03.05-.06.11-.09.16-.37.64-.77,1.27-1.19,1.87-.04.05-.08.11-.11.16-.42.6-.86,1.19-1.32,1.76-.04.05-.08.1-.12.15-.47.57-.95,1.12-1.46,1.66-.04.04-.08.08-.12.12-.51.54-1.05,1.06-1.6,1.56-.03.03-.06.05-.09.08-.25.23-.5.45-.76.67l-.09,36.87c0,.36.46.54.69.26,5.05-5.94,8.84-5.71,8.84-5.71h3.68c2.41,0,4.82-.16,7.2-.49l16.41-2.24c.91-.12,1.82-.28,2.72-.48l13.32-2.91c11.89-2.59,20.36-13.05,20.36-25.14v-.46h0Z"/><path class="cls-4" d="m253.26,111.09h-18.65c-.65,0-1.3,0-1.95.03-20.75.62-39.79,11.7-51.27,29h0c-5.09,7.67-13.69,12.29-22.9,12.29"/><path class="cls-3" d="m253.26,111.09h-18.65c-.65,0-1.3,0-1.95.03-20.75.62-39.79,11.7-51.27,29h0c-5.09,7.67-13.69,12.29-22.9,12.29"/><path class="cls-19" d="m254.69,67.22l-11.31-29.79-15.08-15.84-21.49-6.79h-115.39l-27.9,10.56-17.35,23-3.77,37.33v22.62l1.91-2.98.47-2.49c0-.15.99-2.66.99-2.81l3.31-22.79,2.16-10.89c3.62-18.2,17.9-32.39,36.12-35.89,2.84-.55,5.72-.82,8.61-.82h99.45c2.24,0,4.47.16,6.69.49l4.19.62c20.21,3,35.96,19.07,38.55,39.33l.9,7.03,1.15,8.86c1.18,9.04,1.77,18.15,1.77,27.26v39.66c0,.79.61,1.43,1.38,1.5,1.66-.95,3.02-4.73,4.67-4.99,3.92-.63,0-82.2,0-82.2Z"/><path class="cls-30" d="m254.69,67.22l-11.31-29.79-15.08-15.84-21.49-6.79h-115.39l-27.9,10.56-17.35,23-3.77,37.33v22.62l1.91-2.98.47-2.49c0-.15.99-2.66.99-2.81l3.31-22.79,2.16-10.89c3.62-18.2,17.9-32.39,36.12-35.89,2.84-.55,5.72-.82,8.61-.82h99.45c2.24,0,4.47.16,6.69.49l4.19.62c20.21,3,35.96,19.07,38.55,39.33l.9,7.03,1.15,8.86c1.18,9.04,1.77,18.15,1.77,27.26v39.66c0,.79.61,1.43,1.38,1.5,1.66-.95,3.02-4.73,4.67-4.99,3.92-.63,0-82.2,0-82.2Z"/><path class="cls-14" d="m120.26,1.3l-8.51,8.51c-.64.64-1.5,1-2.4,1.01-3.12.03-10.6.08-13.61.03-24.9-.64-47.56,15.59-54.66,39.52-1.86,5.32-2.45,11.21-2.45,16.84-.28,10.67-.46,21.35-.67,32.02v.41s.05.33.05.33l3.03,7.54c.2.5.61.87,1.12,1.03l4.98,1.79c-.6-4.14-1.09-7.52-1.75-11.65l.05.74c.35-10.67.73-21.34,1.01-32.01-.01-5.27.62-10.68,2.36-15.68,5.67-18.88,23.31-33.38,43.11-34.84,5.14-.35,18.82-.15,18.82-.15h76.2s10.67-.19,15.82.15c19.8,1.46,37.44,15.96,43.11,34.84,1.74,5,5.4,23.83,5.38,29.11v18.58s0,50.37,0,50.37c0,1.73-.01,3.36-1.24,4.59l2.78.03c3.29,0,5.96-2.67,5.96-5.96v-27.59l.33-39.66c0-8.1-3.6-25.52-5.47-30.84-7.11-23.93-29.77-40.16-54.66-39.52-2.86.05-8.11,0-10.61-.02-.9,0-1.75-.37-2.39-1.01l-8.81-8.81C176.52.36,175.63,0,174.72,0l-52.04.29c-.9,0-1.77.37-2.41,1.01Z"/><path class="cls-29" d="m120.26,1.3l-8.51,8.51c-.64.64-1.5,1-2.4,1.01-3.12.03-10.6.08-13.61.03-24.9-.64-47.56,15.59-54.66,39.52-1.86,5.32-2.45,11.21-2.45,16.84-.28,10.67-.46,21.35-.67,32.02v.41s.05.33.05.33l3.03,7.54c.2.5.61.87,1.12,1.03l4.98,1.79c-.6-4.14-1.09-7.52-1.75-11.65l.05.74c.35-10.67.73-21.34,1.01-32.01-.01-5.27.62-10.68,2.36-15.68,5.67-18.88,23.31-33.38,43.11-34.84,5.14-.35,18.82-.15,18.82-.15h76.2s10.67-.19,15.82.15c19.8,1.46,37.44,15.96,43.11,34.84,1.74,5,5.4,23.83,5.38,29.11v18.58s0,50.37,0,50.37c0,1.73-.01,3.36-1.24,4.59l2.78.03c3.29,0,5.96-2.67,5.96-5.96v-27.59l.33-39.66c0-8.1-3.6-25.52-5.47-30.84-7.11-23.93-29.77-40.16-54.66-39.52-2.86.05-8.11,0-10.61-.02-.9,0-1.75-.37-2.39-1.01l-8.81-8.81C176.52.36,175.63,0,174.72,0l-52.04.29c-.9,0-1.77.37-2.41,1.01Z"/><path class="cls-27" d="m120.26,1.3l-8.51,8.51c-.64.64-1.5,1-2.4,1.01-3.12.03-10.6.08-13.61.03-24.9-.64-47.56,15.59-54.66,39.52-1.86,5.32-2.45,11.21-2.45,16.84-.28,10.67-.46,21.35-.67,32.02v.41s.05.33.05.33l3.03,7.54c.2.5.61.87,1.12,1.03l4.98,1.79c-.6-4.14-1.09-7.52-1.75-11.65l.05.74c.35-10.67.73-21.34,1.01-32.01-.01-5.27.62-10.68,2.36-15.68,5.67-18.88,23.31-33.38,43.11-34.84,5.14-.35,18.82-.15,18.82-.15h76.2s10.67-.19,15.82.15c19.8,1.46,37.44,15.96,43.11,34.84,1.74,5,5.4,23.83,5.38,29.11v18.58s0,50.37,0,50.37c0,1.73-.01,3.36-1.24,4.59l2.78.03c3.29,0,5.96-2.67,5.96-5.96v-27.59l.33-39.66c0-8.1-3.6-25.52-5.47-30.84-7.11-23.93-29.77-40.16-54.66-39.52-2.86.05-8.11,0-10.61-.02-.9,0-1.75-.37-2.39-1.01l-8.81-8.81C176.52.36,175.63,0,174.72,0l-52.04.29c-.9,0-1.77.37-2.41,1.01Z"/></g><g id="input3"><path class="cls-20" d="m152.13,135.1s-32.01,13.9-35.41-3.35c.29,6.54,2.88,13.21,8.42,19.24,19.04,20.71,57.99,10.49,61-17.75-2.82,13.19-34.01,1.86-34.01,1.86Z"/><path class="cls-15" d="m186.82,126.83c-.03-31.85-42.8-43.52-62.58-21.03-21.92,24.92,4.51,59.24,34.36,53.48,15.5-2.99,28.23-16.27,28.22-32.45h0Z"/><ellipse class="cls-20" cx="151.51" cy="129.86" rx="31.12" ry="29.81"/><path class="cls-28" d="m151.06,95.14c8.84,0,17.58,3.06,23.96,8.41,4.92,4.12,10.79,11.5,10.8,23.28,0,7.43-2.85,14.71-8.04,20.5-5.04,5.63-11.92,9.53-19.37,10.96-2.14.41-4.32.62-6.49.62-13.59,0-26.48-8.32-32.08-20.69-4.92-10.88-3.04-22.46,5.14-31.77,6.42-7.3,15.68-11.32,26.06-11.32m0-1c-9.88,0-19.79,3.68-26.81,11.66-20.27,23.04.8,54.12,27.68,54.12,2.19,0,4.42-.21,6.68-.64,15.5-2.99,28.23-16.27,28.22-32.45-.02-20.54-17.82-32.69-35.76-32.69h0Z"/><path class="cls-21" d="m178.79,124.51c-.03,25.52-33.14,37.48-49.22,17.41s2.23-49.8,27.18-44.61c12.74,2.65,21.98,14.23,22.04,27.2h0Z"/><path class="cls-18" d="m178.87,123.51c.79-25.18-31.02-38.51-48.16-19.83s-.37,51.01,25.38,46.32c12.74-2.32,22.33-13.59,22.78-26.49h0Z"/><path class="cls-24" d="m178.79,124.51c-.03,25.52-33.14,37.48-49.22,17.41s2.23-49.8,27.18-44.61c12.74,2.65,21.98,14.23,22.04,27.2h0Z"/><path class="cls-24" d="m178.87,123.51c.79-25.18-31.02-38.51-48.16-19.83s-.37,51.01,25.38,46.32c12.74-2.32,22.33-13.59,22.78-26.49h0Z"/><g id="hat"><path class="cls-21" d="m161.3,116.33c2.41,3.75,2.53,8.66.27,12.52l.04-1.94c2.26-3.88,2.14-8.8-.27-12.57l-.04,1.98h0Z"/><polygon class="cls-21" points="174.72 108.1 161.3 116.33 161.34 114.35 174.8 106.09 174.72 108.1 174.72 108.1"/><path class="cls-21" d="m178.81,122.72c0,5.01-1.31,10.01-3.94,14.29l-13.29-8.15c2.25-3.87,2.14-8.77-.27-12.52l13.41-8.23c2.71,4.39,4.08,9.47,4.09,14.62h0Z"/><path class="cls-14" d="m178.9,121.25c.08-5.33-1.3-10.61-4.1-15.16l-13.46,8.26c2.42,3.77,2.53,8.69.27,12.57l13.34,8.18c2.55-4.15,3.87-8.99,3.95-13.85h0Z"/><path class="cls-21" d="m140.73,116.68l.22-.35-.04-1.98c-2.42,3.77-2.53,8.69-.27,12.57l.04,1.94c-2.18-3.74-2.15-8.46.05-12.17h0Z"/><path class="cls-21" d="m127.55,108.1l13.41,8.22c-2.41,3.75-2.53,8.66-.27,12.52l-13.29,8.15c-5.33-8.72-5.17-20.25.16-28.9h0Z"/><path class="cls-14" d="m140.91,114.35l-13.45-8.25c-5.35,8.68-5.51,20.25-.16,29l13.34-8.18c-2.26-3.88-2.14-8.8.27-12.57h0Z"/><polygon class="cls-21" points="136.67 99.01 144.98 112.45 144.96 110.46 136.62 96.97 136.67 99.01 136.67 99.01"/><path class="cls-21" d="m165.58,99.01c-8.77-5.36-20.12-5.38-28.91,0l-.05-2.04c8.83-5.39,20.21-5.37,29.02,0l-.05,2.04h0Z"/><path class="cls-21" d="m156.93,112.26l.34.19.02-1.99c-3.78-2.22-8.56-2.22-12.34,0l.02,1.99c3.64-2.14,8.24-2.22,11.96-.19h0Z"/><polygon class="cls-21" points="157.28 112.45 165.58 99.01 165.63 96.97 157.3 110.46 157.28 112.45 157.28 112.45"/><path class="cls-21" d="m165.58,99.01l-8.31,13.44c-3.76-2.21-8.53-2.21-12.3,0l-8.31-13.44c8.8-5.38,20.14-5.35,28.91,0h0Z"/><path class="cls-14" d="m157.3,110.46l8.34-13.48c-8.8-5.38-20.19-5.4-29.02,0l8.34,13.49c3.78-2.22,8.56-2.22,12.34,0h0Z"/><path class="cls-21" d="m165.27,146.66l.33-.2.05-1.87c-8.83,5.4-20.23,5.38-29.03,0l.05,1.87c8.66,5.3,19.85,5.4,28.61.2h0Z"/><path class="cls-21" d="m157.55,133.45l8.04,13.01c-8.8,5.38-20.15,5.36-28.93,0l8.04-13.01c3.89,2.44,8.96,2.44,12.85,0h0Z"/><path class="cls-14" d="m165.65,144.59l-8.07-13.06c-3.9,2.44-8.99,2.45-12.89,0l-8.07,13.05c8.81,5.39,20.2,5.41,29.03,0h0Z"/><path class="cls-21" d="m158.47,122.51c0,6.72-8.73,9.83-13.01,4.65s.53-13.18,7.15-11.82c3.37.69,5.86,3.73,5.86,7.17h0Z"/><path class="cls-14" d="m158.5,120.74c.16-6.75-8.52-10.09-12.94-4.99s.21,13.23,6.88,12.03c3.39-.61,5.97-3.59,6.06-7.04h0Z"/><path class="cls-22" d="m158.5,120.74c.16-6.75-8.52-10.09-12.94-4.99s.21,13.23,6.88,12.03c3.39-.61,5.97-3.59,6.06-7.04h0Z"/><g class="cls-2"><polygon class="cls-23" points="161.58 128.85 174.87 137 174.95 135.1 161.62 126.91 161.58 128.85 161.58 128.85"/><path class="cls-23" d="m161.3,116.33c2.41,3.75,2.53,8.66.27,12.52l.04-1.94c2.26-3.88,2.14-8.8-.27-12.57l-.04,1.98h0Z"/><polygon class="cls-23" points="174.72 108.1 161.3 116.33 161.34 114.35 174.8 106.09 174.72 108.1 174.72 108.1"/><path class="cls-23" d="m178.8,123.2c.08-5.31-1.3-10.58-4.09-15.1l.08-2.01c5.36,8.7,5.52,20.28.15,29.01l-.08,1.91c2.54-4.14,3.86-8.95,3.93-13.8h0Z"/><path class="cls-23" d="m178.81,122.72c0,5.01-1.31,10.01-3.94,14.29l-13.29-8.15c2.25-3.87,2.14-8.77-.27-12.52l13.41-8.23c2.71,4.39,4.08,9.47,4.09,14.62h0Z"/><path class="cls-23" d="m178.9,121.25c.08-5.33-1.3-10.61-4.1-15.16l-13.46,8.26c2.42,3.77,2.53,8.69.27,12.57l13.34,8.18c2.55-4.15,3.87-8.99,3.95-13.85h0Z"/><polygon class="cls-23" points="127.39 137 140.68 128.85 140.64 126.91 127.3 135.1 127.39 137 127.39 137"/><path class="cls-23" d="m127.55,108.1c-5.33,8.65-5.49,20.18-.16,28.9l-.08-1.91c-5.35-8.75-5.19-20.32.16-29l.08,2.01h0Z"/><path class="cls-23" d="m140.73,116.68l.22-.35-.04-1.98c-2.42,3.77-2.53,8.69-.27,12.57l.04,1.94c-2.18-3.74-2.15-8.46.05-12.17h0Z"/><polygon class="cls-23" points="140.95 116.33 127.55 108.1 127.46 106.09 140.91 114.35 140.95 116.33 140.95 116.33"/><path class="cls-23" d="m127.55,108.1l13.41,8.22c-2.41,3.75-2.53,8.66-.27,12.52l-13.29,8.15c-5.33-8.72-5.17-20.25.16-28.9h0Z"/><path class="cls-23" d="m140.91,114.35l-13.45-8.25c-5.35,8.68-5.51,20.25-.16,29l13.34-8.18c-2.26-3.88-2.14-8.8.27-12.57h0Z"/><polygon class="cls-23" points="136.67 99.01 144.98 112.45 144.96 110.46 136.62 96.97 136.67 99.01 136.67 99.01"/><path class="cls-23" d="m165.58,99.01c-8.77-5.36-20.12-5.38-28.91,0l-.05-2.04c8.83-5.39,20.21-5.37,29.02,0l-.05,2.04h0Z"/><path class="cls-23" d="m156.93,112.26l.34.19.02-1.99c-3.78-2.22-8.56-2.22-12.34,0l.02,1.99c3.64-2.14,8.24-2.22,11.96-.19h0Z"/><polygon class="cls-23" points="157.28 112.45 165.58 99.01 165.63 96.97 157.3 110.46 157.28 112.45 157.28 112.45"/><path class="cls-23" d="m165.58,99.01l-8.31,13.44c-3.76-2.21-8.53-2.21-12.3,0l-8.31-13.44c8.8-5.38,20.14-5.35,28.91,0h0Z"/><path class="cls-23" d="m157.3,110.46l8.34-13.48c-8.8-5.38-20.19-5.4-29.02,0l8.34,13.49c3.78-2.22,8.56-2.22,12.34,0h0Z"/><polygon class="cls-23" points="144.7 133.45 136.66 146.46 136.61 144.58 144.68 131.53 144.7 133.45 144.7 133.45"/><path class="cls-23" d="m157.55,133.45c-3.89,2.44-8.96,2.44-12.85,0l-.02-1.92c3.9,2.44,8.99,2.45,12.89,0l-.02,1.92h0Z"/><path class="cls-23" d="m165.27,146.66l.33-.2.05-1.87c-8.83,5.4-20.23,5.38-29.03,0l.05,1.87c8.66,5.3,19.85,5.4,28.61.2h0Z"/><polygon class="cls-23" points="165.6 146.46 157.55 133.45 157.57 131.53 165.65 144.59 165.6 146.46 165.6 146.46"/><path class="cls-23" d="m157.55,133.45l8.04,13.01c-8.8,5.38-20.15,5.36-28.93,0l8.04-13.01c3.89,2.44,8.96,2.44,12.85,0h0Z"/><path class="cls-23" d="m165.65,144.59l-8.07-13.06c-3.9,2.44-8.99,2.45-12.89,0l-8.07,13.05c8.81,5.39,20.2,5.41,29.03,0h0Z"/><path class="cls-23" d="m158.47,122.51c0,6.72-8.73,9.83-13.01,4.65s.53-13.18,7.15-11.82c3.37.69,5.86,3.73,5.86,7.17h0Z"/><path class="cls-23" d="m158.5,120.74c.16-6.75-8.52-10.09-12.94-4.99s.21,13.23,6.88,12.03c3.39-.61,5.97-3.59,6.06-7.04h0Z"/><path class="cls-23" d="m158.5,120.74c.16-6.75-8.52-10.09-12.94-4.99s.21,13.23,6.88,12.03c3.39-.61,5.97-3.59,6.06-7.04h0Z"/></g></g></g><g id="input2"><path class="cls-14" d="m212.54,45.23h-18.93c-1.43,0-2.83.5-3.96,1.4l-5.37,4.32c-1.5,1.2-2.41,3.02-2.47,4.94l-.66,19.97c-.07,2.06.75,4.02,2.24,5.33l5.43,4.8c1.16,1.03,2.63,1.59,4.16,1.59h20.19c1.53,0,3-.56,4.16-1.59l5.43-4.8c1.49-1.32,2.31-3.28,2.24-5.33l-.66-19.97c-.06-1.92-.97-3.74-2.47-4.94l-5.37-4.32c-1.13-.91-2.53-1.4-3.96-1.4Z"/><path class="cls-9" d="m211.96,48.09h-17.77c-.78,0-1.54.27-2.15.77l-5.93,4.8c-.81.66-1.3,1.64-1.33,2.69l-.54,19.18c-.03,1.11.42,2.17,1.22,2.87l5.99,5.26c.63.55,1.42.85,2.25.85h18.79c.82,0,1.62-.3,2.25-.85l5.99-5.26c.8-.71,1.25-1.76,1.22-2.87l-.54-19.18c-.03-1.04-.52-2.03-1.33-2.69l-5.93-4.8c-.61-.5-1.37-.77-2.15-.77Z"/><polygon class="cls-8" points="211.81 50.4 194.34 50.4 187.29 56.13 186.82 75.61 193.91 81.81 212.24 81.81 219.33 75.61 218.86 56.13 211.81 50.4"/><polygon class="cls-10" points="210.24 53.16 195.92 53.16 190.16 57.88 189.84 73.77 195.63 78.79 210.52 78.79 216.31 73.77 215.99 57.88 210.24 53.16"/><polygon class="cls-11" points="207.64 57.04 198.02 57.04 194.17 60.22 194.03 70.83 197.89 74.15 207.77 74.15 211.63 70.83 211.49 60.22 207.64 57.04"/></g><g id="input1"><path class="cls-14" d="m105.8,81.52l-13.74.06c-5.62.02-10.08-5.26-9.9-11.63l.59-21.01c.16-5.8,4.57-10.48,9.8-10.51l12.78-.05c5.23-.02,9.63,4.62,9.8,10.43l.59,21c.18,6.36-4.28,11.68-9.9,11.71Z"/><g class="cls-1"><path class="cls-17" d="m89.83,75.2c-.32,0-.62-.13-.85-.36-.26-.26-.4-.63-.39-1.02l.04-2.39c.01-.75.58-1.36,1.27-1.36l18.07-.08c.69,0,1.26.61,1.27,1.35l.04,2.39c0,.39-.14.76-.39,1.02-.23.24-.53.37-.85.37l-18.19.08h0Z"/><path class="cls-25" d="m89.83,75.2c-.32,0-.62-.13-.85-.36-.26-.26-.4-.63-.39-1.02l.04-2.39c.01-.75.58-1.36,1.27-1.36l18.07-.08c.69,0,1.26.61,1.27,1.35l.04,2.39c0,.39-.14.76-.39,1.02-.23.24-.53.37-.85.37l-18.19.08h0Z"/><path class="cls-14" d="m107.96,70.49c.42,0,.76.39.77.86l.04,2.39c0,.48-.33.88-.75.88l-18.19.08s0,0,0,0c-.42,0-.75-.39-.75-.87l.04-2.39c0-.48.35-.87.77-.87l18.07-.08s0,0,0,0m0-1h0s-18.07.08-18.07.08c-.96,0-1.75.84-1.77,1.85l-.04,2.39c0,.52.19,1.02.54,1.38.33.33.75.51,1.21.51l18.2-.08c.45,0,.88-.19,1.21-.52.35-.36.55-.86.54-1.38l-.04-2.39c-.02-1.02-.81-1.85-1.77-1.85h0Z"/></g><g class="cls-1"><path class="cls-17" d="m89.89,71.06c-.32,0-.62-.13-.85-.36-.25-.26-.4-.62-.39-1.01l.04-2.36c.01-.74.58-1.35,1.26-1.35l17.95-.07c.69,0,1.26.6,1.27,1.34l.04,2.36c0,.38-.14.75-.39,1.01-.23.23-.53.36-.85.37l-18.07.08Z"/><path class="cls-26" d="m89.89,71.06c-.32,0-.62-.13-.85-.36-.25-.26-.4-.62-.39-1.01l.04-2.36c.01-.74.58-1.35,1.26-1.35l17.95-.07c.69,0,1.26.6,1.27,1.34l.04,2.36c0,.38-.14.75-.39,1.01-.23.23-.53.36-.85.37l-18.07.08Z"/><path class="cls-14" d="m107.9,66.41c.41,0,.76.38.76.85l.04,2.36c0,.48-.32.86-.74.87l-18.07.08h0c-.42,0-.75-.38-.74-.86l.04-2.36c0-.47.35-.86.77-.86l17.95-.07h0m0-1h0s-17.95.07-17.95.07c-.95,0-1.74.83-1.76,1.84l-.04,2.36c0,.51.19,1.01.53,1.36.32.33.75.51,1.21.51l18.08-.08c.45,0,.88-.19,1.21-.52.35-.35.54-.85.53-1.37l-.04-2.36c-.02-1.01-.81-1.83-1.76-1.83h0Z"/></g><g class="cls-1"><path class="cls-17" d="m89.95,66.98c-.32,0-.62-.13-.85-.36-.25-.26-.39-.62-.39-1l.04-2.33c.01-.73.58-1.33,1.26-1.34l17.83-.07c.69,0,1.25.6,1.26,1.33l.04,2.33c0,.38-.14.74-.39,1-.23.23-.53.36-.85.37l-17.95.07h0Z"/><path class="cls-37" d="m89.95,66.98c-.32,0-.62-.13-.85-.36-.25-.26-.39-.62-.39-1l.04-2.33c.01-.73.58-1.33,1.26-1.34l17.83-.07c.69,0,1.25.6,1.26,1.33l.04,2.33c0,.38-.14.74-.39,1-.23.23-.53.36-.85.37l-17.95.07h0Z"/><path class="cls-14" d="m107.84,62.39c.41,0,.75.37.76.84l.04,2.33c0,.47-.32.85-.74.85l-17.95.07h0c-.41,0-.74-.38-.74-.85l.04-2.33c0-.47.35-.84.76-.85l17.83-.07h0m0-1h0s-17.83.07-17.83.07c-.95,0-1.74.82-1.76,1.83l-.04,2.33c0,.51.18,1,.53,1.35.32.33.75.51,1.2.51l17.95-.07c.45,0,.88-.18,1.2-.52.34-.35.54-.85.53-1.36l-.04-2.33c-.02-1.01-.8-1.82-1.76-1.82h0Z"/></g><g class="cls-1"><path class="cls-17" d="m90.01,62.96c-.32,0-.62-.13-.85-.36-.25-.25-.39-.61-.38-.98l.04-2.3c.01-.73.57-1.32,1.25-1.33l17.71-.07c.68,0,1.24.59,1.26,1.32l.04,2.3c0,.37-.13.73-.38.99-.23.23-.53.36-.85.36l-17.83.07h0Z"/><path class="cls-38" d="m90.01,62.96c-.32,0-.62-.13-.85-.36-.25-.25-.39-.61-.38-.98l.04-2.3c.01-.73.57-1.32,1.25-1.33l17.71-.07c.68,0,1.24.59,1.26,1.32l.04,2.3c0,.37-.13.73-.38.99-.23.23-.53.36-.85.36l-17.83.07h0Z"/><path class="cls-14" d="m107.78,58.42c.41,0,.74.37.75.83l.04,2.3c0,.46-.32.84-.73.84l-17.83.07h0c-.41,0-.74-.37-.73-.84l.04-2.3c0-.46.35-.83.76-.83l17.71-.07h0m0-1h0s-17.71.07-17.71.07c-.95,0-1.73.82-1.75,1.82l-.04,2.3c0,.51.18,1,.53,1.34.32.33.75.51,1.2.51l17.83-.07c.45,0,.88-.18,1.2-.51.34-.35.53-.84.53-1.35l-.04-2.3c-.02-1-.8-1.81-1.75-1.81h0Z"/></g><g class="cls-1"><path class="cls-17" d="m90.07,58.99c-.32,0-.62-.13-.85-.36-.25-.25-.39-.61-.38-.97l.04-2.27c.01-.72.57-1.31,1.25-1.31l17.59-.07c.68,0,1.24.59,1.25,1.31l.04,2.27c0,.37-.13.72-.38.98-.23.23-.53.36-.85.36l-17.71.07h0Z"/><path class="cls-36" d="m90.07,58.99c-.32,0-.62-.13-.85-.36-.25-.25-.39-.61-.38-.97l.04-2.27c.01-.72.57-1.31,1.25-1.31l17.59-.07c.68,0,1.24.59,1.25,1.31l.04,2.27c0,.37-.13.72-.38.98-.23.23-.53.36-.85.36l-17.71.07h0Z"/><path class="cls-14" d="m107.72,54.5c.41,0,.74.36.75.82l.04,2.27c0,.46-.32.83-.73.83l-17.71.07h0c-.41,0-.73-.37-.73-.83l.04-2.27c0-.45.34-.82.75-.82l17.59-.07h0m0-1h0s-17.59.07-17.59.07c-.95,0-1.73.81-1.75,1.81l-.04,2.27c0,.5.18.99.52,1.33.32.33.75.51,1.2.51l17.71-.07c.45,0,.88-.18,1.2-.51.34-.35.53-.83.52-1.33l-.04-2.27c-.02-.99-.8-1.8-1.75-1.8h0Z"/></g><g class="cls-1"><path class="cls-17" d="m90.13,55.07c-.32,0-.62-.13-.84-.36-.25-.25-.38-.6-.38-.96l.04-2.24c.01-.72.57-1.3,1.24-1.3l17.47-.07c.68,0,1.24.58,1.25,1.3l.04,2.24c0,.36-.13.72-.38.97-.23.23-.53.36-.84.36l-17.6.07Z"/><path class="cls-35" d="m90.13,55.07c-.32,0-.62-.13-.84-.36-.25-.25-.38-.6-.38-.96l.04-2.24c.01-.72.57-1.3,1.24-1.3l17.47-.07c.68,0,1.24.58,1.25,1.3l.04,2.24c0,.36-.13.72-.38.97-.23.23-.53.36-.84.36l-17.6.07Z"/><path class="cls-14" d="m107.66,50.64c.4,0,.73.36.74.81l.04,2.24c0,.45-.32.82-.72.82l-17.59.07s0,0,0,0c-.41,0-.73-.36-.72-.82l.04-2.24c0-.45.34-.81.75-.81l17.47-.07s0,0,0,0m0-1h0s-17.47.07-17.47.07c-.94,0-1.72.81-1.74,1.8l-.04,2.24c0,.5.18.98.52,1.32.32.33.75.51,1.2.51l17.6-.07c.45,0,.88-.18,1.2-.51.34-.35.53-.83.52-1.32l-.04-2.24c-.02-.99-.8-1.79-1.74-1.79h0Z"/></g><g class="cls-1"><path class="cls-17" d="m90.19,51.21c-.32,0-.62-.13-.84-.36-.24-.25-.38-.6-.37-.96l.04-2.21c.01-.71.57-1.29,1.24-1.29l17.36-.07c.68,0,1.23.58,1.24,1.29l.04,2.21c0,.36-.13.71-.37.96-.23.23-.53.36-.84.36l-17.48.07Z"/><path class="cls-31" d="m90.19,51.21c-.32,0-.62-.13-.84-.36-.24-.25-.38-.6-.37-.96l.04-2.21c.01-.71.57-1.29,1.24-1.29l17.36-.07c.68,0,1.23.58,1.24,1.29l.04,2.21c0,.36-.13.71-.37.96-.23.23-.53.36-.84.36l-17.48.07Z"/><path class="cls-14" d="m107.61,46.83c.4,0,.73.36.74.8l.04,2.21c0,.45-.31.81-.72.81l-17.47.07s0,0,0,0c-.4,0-.72-.36-.72-.8l.04-2.21c0-.44.34-.8.74-.8l17.36-.07s0,0,0,0m0-1h0s-17.36.07-17.36.07c-.94,0-1.72.8-1.74,1.79l-.04,2.21c0,.49.18.97.52,1.31.32.33.75.51,1.2.51l17.48-.07c.45,0,.88-.18,1.2-.51.34-.34.52-.82.52-1.32l-.04-2.21c-.02-.98-.8-1.78-1.74-1.78h0Z"/></g><g class="cls-1"><path class="cls-17" d="m90.24,47.4c-.32,0-.61-.13-.84-.36-.24-.25-.38-.59-.37-.95l.04-2.18c.01-.71.57-1.28,1.23-1.28l17.25-.07c.67,0,1.23.57,1.24,1.28l.04,2.18c0,.36-.13.7-.37.95-.23.23-.52.36-.84.36l-17.36.07Z"/><path class="cls-32" d="m90.24,47.4c-.32,0-.61-.13-.84-.36-.24-.25-.38-.59-.37-.95l.04-2.18c.01-.71.57-1.28,1.23-1.28l17.25-.07c.67,0,1.23.57,1.24,1.28l.04,2.18c0,.36-.13.7-.37.95-.23.23-.52.36-.84.36l-17.36.07Z"/><path class="cls-14" d="m107.55,43.06c.4,0,.73.35.73.79l.04,2.18c0,.44-.31.8-.71.8l-17.36.07s0,0,0,0c-.4,0-.72-.36-.71-.79l.04-2.18c0-.44.34-.79.74-.79l17.25-.07s0,0,0,0m0-1h0s-17.25.07-17.25.07c-.94,0-1.72.8-1.73,1.78l-.04,2.18c0,.49.18.96.51,1.3.32.33.75.51,1.2.51l17.37-.07c.45,0,.88-.18,1.2-.51.33-.34.52-.82.51-1.31l-.04-2.18c-.02-.98-.79-1.77-1.73-1.77h0Z"/></g><g class="cls-1"><path class="cls-17" d="m109.59,71.65l-.43-24.05c0-.44.31-.8.71-.8h.98c.4,0,.73.35.74.79l.53,24.05c.01.48-.32.87-.74.87h-1.03c-.42,0-.77-.38-.77-.86Z"/><path class="cls-33" d="m109.59,71.65l-.43-24.05c0-.44.31-.8.71-.8h.98c.4,0,.73.35.74.79l.53,24.05c.01.48-.32.87-.74.87h-1.03c-.42,0-.77-.38-.77-.86Z"/></g><g class="cls-1"><path class="cls-17" d="m85.69,71.75l.53-24.06c0-.44.34-.8.74-.8h.98c.4,0,.72.35.71.79l-.43,24.06c0,.48-.36.87-.77.87h-1.03c-.42,0-.75-.38-.74-.86Z"/><path class="cls-34" d="m85.69,71.75l.53-24.06c0-.44.34-.8.74-.8h.98c.4,0,.72.35.71.79l-.43,24.06c0,.48-.36.87-.77.87h-1.03c-.42,0-.75-.38-.74-.86Z"/></g></g></g></svg>