<svg width="65" height="64" viewBox="0 0 65 64" fill="none" xmlns="http://www.w3.org/2000/svg">
    <g filter="url(#filter0_d_64_7205)">
        <path
            d="M41.965 10.325H23.035C21.605 10.325 20.205 10.825 19.075 11.725L13.705 16.045C12.205 17.245 11.295 19.065 11.235 20.985L10.575 40.955C10.505 43.015 11.325 44.975 12.815 46.285L18.245 51.085C19.405 52.115 20.875 52.675 22.405 52.675H42.595C44.125 52.675 45.595 52.115 46.755 51.085L52.185 46.285C53.675 44.965 54.495 43.005 54.425 40.955L53.765 20.985C53.705 19.065 52.795 17.245 51.295 16.045L45.925 11.725C44.795 10.815 43.395 10.325 41.965 10.325Z"
            fill="#00F0CC" />
        <path
            d="M41.385 13.185H23.615C22.835 13.185 22.075 13.455 21.465 13.955L15.535 18.755C14.725 19.415 14.235 20.395 14.205 21.445L13.665 40.625C13.635 41.735 14.085 42.795 14.885 43.495L20.875 48.755C21.505 49.305 22.295 49.605 23.125 49.605H41.915C42.735 49.605 43.535 49.305 44.165 48.755L50.155 43.495C50.955 42.785 51.405 41.735 51.375 40.625L50.835 21.445C50.805 20.405 50.315 19.415 49.505 18.755L43.575 13.955C42.965 13.455 42.205 13.185 41.425 13.185H41.385Z"
            fill="#00B499" stroke="#00B499" stroke-width="0.5" stroke-miterlimit="10" />
        <path
            d="M41.235 15.495H23.765L16.715 21.225L16.245 40.705L23.335 46.905H41.665L48.755 40.705L48.285 21.225L41.235 15.495Z"
            fill="#007866" />
        <path
            d="M39.665 18.255H25.345L19.585 22.975L19.265 38.865L25.055 43.885H39.945L45.735 38.865L45.415 22.975L39.665 18.255Z"
            fill="#005C52" />
        <path
            d="M37.065 22.135H27.445L23.595 25.315L23.455 35.925L27.315 39.245H37.195L41.055 35.925L40.915 25.315L37.065 22.135Z"
            fill="#00332C" />
    </g>
    <defs>
        <filter id="filter0_d_64_7205" x="0.570862" y="1.32498" width="63.8583" height="62.35"
            filterUnits="userSpaceOnUse" color-interpolation-filters="sRGB">
            <feFlood flood-opacity="0" result="BackgroundImageFix" />
            <feColorMatrix in="SourceAlpha" type="matrix" values="0 0 0 0 0 0 0 0 0 0 0 0 0 0 0 0 0 0 127 0"
                result="hardAlpha" />
            <feOffset dy="1" />
            <feGaussianBlur stdDeviation="5" />
            <feComposite in2="hardAlpha" operator="out" />
            <feColorMatrix type="matrix" values="0 0 0 0 0 0 0 0 0 0.94 0 0 0 0 1 0 0 0 1 0" />
            <feBlend mode="normal" in2="BackgroundImageFix" result="effect1_dropShadow_64_7205" />
            <feBlend mode="normal" in="SourceGraphic" in2="effect1_dropShadow_64_7205" result="shape" />
        </filter>
    </defs>
</svg>