<svg width="84" height="83" viewBox="0 0 84 83" fill="none" xmlns="http://www.w3.org/2000/svg">
<g filter="url(#filter0_d_64_7156)">
<path fill-rule="evenodd" clip-rule="evenodd" d="M43.664 57.1666C43.664 58.0866 42.9174 58.8333 41.9974 58.8333C41.0774 58.8333 40.3307 58.0866 40.3307 57.1666L40.3307 55.3795C35.5712 54.8515 31.467 52.1261 29.0905 48.14C28.6955 47.4783 29.4158 46.7036 30.1191 47.0169L32.7005 48.1627C33.2122 48.3911 33.6673 48.722 34.084 49.097C36.1823 50.9887 38.939 52.1666 41.9974 52.1666C48.5107 52.1666 53.6857 46.9777 53.664 40.4577C53.6424 34.1877 48.3943 28.9016 42.1243 28.8333C39.0143 28.8 36.209 29.9862 34.0807 31.9062C33.6657 32.2812 33.2137 32.6073 32.7037 32.834L30.1321 33.9798C29.4238 34.2931 28.7003 33.5087 29.097 32.8437C31.4755 28.865 35.5761 26.1368 40.3307 25.6107L40.3307 23.8333C40.3307 22.9133 41.0774 22.1666 41.9974 22.1666C42.9174 22.1666 43.664 22.9133 43.664 23.8333L43.664 25.5944C50.6537 26.3552 56.1349 31.8449 56.8964 38.8333L58.664 38.8333C59.584 38.8333 60.3307 39.58 60.3307 40.5C60.3307 41.42 59.584 42.1666 58.664 42.1666L56.8997 42.1666C56.1122 49.0315 50.4924 54.5873 43.664 55.386L43.664 57.1666Z" fill="white"/>
<path d="M37.4531 47.1601C38.268 47.2386 38.9519 46.3687 38.5436 45.5521L36.0208 40.5L38.5436 35.4479C39.0102 34.5146 38.0516 33.5092 37.0983 33.9342L24.3867 39.3867C23.4267 39.815 23.4267 41.1849 24.3867 41.6133L37.0983 47.0657C37.2172 47.1187 37.3367 47.1489 37.4531 47.1601Z" fill="#00FFF0"/>
</g>
<defs>
<filter id="filter0_d_64_7156" x="0.666687" y="0.166647" width="82.664" height="82.6667" filterUnits="userSpaceOnUse" color-interpolation-filters="sRGB">
<feFlood flood-opacity="0" result="BackgroundImageFix"/>
<feColorMatrix in="SourceAlpha" type="matrix" values="0 0 0 0 0 0 0 0 0 0 0 0 0 0 0 0 0 0 127 0" result="hardAlpha"/>
<feOffset dy="1"/>
<feGaussianBlur stdDeviation="11.5"/>
<feComposite in2="hardAlpha" operator="out"/>
<feColorMatrix type="matrix" values="0 0 0 0 0 0 0 0 0 0.94 0 0 0 0 1 0 0 0 1 0"/>
<feBlend mode="normal" in2="BackgroundImageFix" result="effect1_dropShadow_64_7156"/>
<feBlend mode="normal" in="SourceGraphic" in2="effect1_dropShadow_64_7156" result="shape"/>
</filter>
</defs>
</svg>
