<svg width="80" height="83" viewBox="0 0 80 83" fill="none" xmlns="http://www.w3.org/2000/svg">
<g filter="url(#filter0_d_63_5853)">
<path fill-rule="evenodd" clip-rule="evenodd" d="M23.3319 41.6653C22.4119 41.6653 21.6653 40.9187 21.6653 39.9987C21.6653 39.0787 22.4119 38.332 23.3319 38.332L25.1191 38.332C25.6471 33.5726 28.3725 29.4683 32.3586 27.0918C33.0203 26.6968 33.795 27.4171 33.4817 28.1204L32.3359 30.7018C32.1075 31.2135 31.7766 31.6686 31.4016 32.0853C29.5099 34.1836 28.3319 36.9403 28.3319 39.9987C28.3319 46.512 33.5209 51.687 40.0409 51.6653C46.3109 51.6437 51.597 46.3956 51.6653 40.1256C51.6986 37.0156 50.5124 34.2103 48.5924 32.082C48.2174 31.667 47.8913 31.2151 47.6646 30.7051L46.5188 28.1334C46.2055 27.4251 46.9899 26.7016 47.6549 27.0983C51.6336 29.4768 54.3618 33.5774 54.8879 38.332L56.6653 38.332C57.5853 38.332 58.332 39.0787 58.332 39.9987C58.332 40.9187 57.5853 41.6653 56.6653 41.6653L54.9042 41.6653C54.1434 48.655 48.6537 54.1362 41.6653 54.8978L41.6653 56.6653C41.6653 57.5853 40.9186 58.332 39.9986 58.332C39.0786 58.332 38.332 57.5853 38.332 56.6653L38.332 54.901C31.4671 54.1135 25.9113 48.4937 25.1125 41.6653L23.3319 41.6653Z" fill="white"/>
<path d="M33.3385 35.4544C33.26 36.2693 34.1299 36.9532 34.9465 36.5449L39.9986 34.0221L45.0507 36.5449C45.984 37.0116 46.9894 36.0529 46.5644 35.0996L41.1119 22.388C40.6836 21.428 39.3137 21.428 38.8853 22.388L33.4329 35.0996C33.3799 35.2186 33.3497 35.338 33.3385 35.4544Z" fill="#00FFF0"/>
</g>
<defs>
<filter id="filter0_d_63_5853" x="-1.33472" y="-0.331993" width="82.6666" height="82.664" filterUnits="userSpaceOnUse" color-interpolation-filters="sRGB">
<feFlood flood-opacity="0" result="BackgroundImageFix"/>
<feColorMatrix in="SourceAlpha" type="matrix" values="0 0 0 0 0 0 0 0 0 0 0 0 0 0 0 0 0 0 127 0" result="hardAlpha"/>
<feOffset dy="1"/>
<feGaussianBlur stdDeviation="11.5"/>
<feComposite in2="hardAlpha" operator="out"/>
<feColorMatrix type="matrix" values="0 0 0 0 0 0 0 0 0 0.94 0 0 0 0 1 0 0 0 1 0"/>
<feBlend mode="normal" in2="BackgroundImageFix" result="effect1_dropShadow_63_5853"/>
<feBlend mode="normal" in="SourceGraphic" in2="effect1_dropShadow_63_5853" result="shape"/>
</filter>
</defs>
</svg>
