<svg width="84" height="83" viewBox="0 0 84 83" fill="none" xmlns="http://www.w3.org/2000/svg">
<g filter="url(#filter0_d_64_7173)">
<path fill-rule="evenodd" clip-rule="evenodd" d="M40.3332 23.8333C40.3332 22.9133 41.0799 22.1667 41.9999 22.1667C42.9199 22.1667 43.6666 22.9133 43.6666 23.8333V25.6204C48.426 26.1485 52.5303 28.8738 54.9068 32.86C55.3018 33.5217 54.5815 34.2964 53.8781 33.9831L51.2968 32.8372C50.7851 32.6089 50.33 32.278 49.9133 31.903C47.815 30.0113 45.0582 28.8333 41.9999 28.8333C35.4866 28.8333 30.3116 34.0223 30.3332 40.5423C30.3549 46.8123 35.6029 52.0983 41.8729 52.1667C44.9829 52.2 47.7882 51.0137 49.9166 49.0937C50.3316 48.7187 50.7835 48.3927 51.2935 48.166L53.8651 47.0202C54.5735 46.7068 55.2969 47.4912 54.9003 48.1562C52.5217 52.1349 48.4211 54.8631 43.6666 55.3893V57.1667C43.6666 58.0867 42.9199 58.8333 41.9999 58.8333C41.0799 58.8333 40.3332 58.0867 40.3332 57.1667V55.4056C33.3436 54.6448 27.8624 49.1551 27.1008 42.1667H25.3332C24.4132 42.1667 23.6666 41.42 23.6666 40.5C23.6666 39.58 24.4132 38.8333 25.3332 38.8333H27.0976C27.8851 31.9685 33.5049 26.4127 40.3332 25.6139V23.8333Z" fill="white"/>
<path d="M46.5442 33.8398C45.7292 33.7614 45.0453 34.6312 45.4537 35.4479L47.9765 40.5L45.4537 45.5521C44.987 46.4854 45.9456 47.4907 46.899 47.0657L59.6106 41.6133C60.5706 41.1849 60.5706 39.815 59.6106 39.3867L46.899 33.9342C46.78 33.8813 46.6606 33.851 46.5442 33.8398Z" fill="#00FFF0"/>
</g>
<defs>
<filter id="filter0_d_64_7173" x="0.666565" y="0.166651" width="82.664" height="82.6667" filterUnits="userSpaceOnUse" color-interpolation-filters="sRGB">
<feFlood flood-opacity="0" result="BackgroundImageFix"/>
<feColorMatrix in="SourceAlpha" type="matrix" values="0 0 0 0 0 0 0 0 0 0 0 0 0 0 0 0 0 0 127 0" result="hardAlpha"/>
<feOffset dy="1"/>
<feGaussianBlur stdDeviation="11.5"/>
<feComposite in2="hardAlpha" operator="out"/>
<feColorMatrix type="matrix" values="0 0 0 0 0 0 0 0 0 0.94 0 0 0 0 1 0 0 0 1 0"/>
<feBlend mode="normal" in2="BackgroundImageFix" result="effect1_dropShadow_64_7173"/>
<feBlend mode="normal" in="SourceGraphic" in2="effect1_dropShadow_64_7173" result="shape"/>
</filter>
</defs>
</svg>
