<svg width="84" height="83" viewBox="0 0 84 83" fill="none" xmlns="http://www.w3.org/2000/svg">
    <g filter="url(#filter0_d_64_7198)">
        <path fill-rule="evenodd" clip-rule="evenodd"
            d="M58.6652 38.8347C59.5852 38.8347 60.3319 39.5813 60.3319 40.5013C60.3319 41.4213 59.5852 42.168 58.6652 42.168L56.8781 42.168C56.35 46.9274 53.6247 51.0317 49.6385 53.4082C48.9769 53.8032 48.2022 53.0829 48.5155 52.3796L49.6613 49.7982C49.8897 49.2865 50.2206 48.8314 50.5956 48.4147C52.4872 46.3164 53.6652 43.5597 53.6652 40.5013C53.6652 33.988 48.4763 28.813 41.9563 28.8347C35.6863 28.8563 30.4002 34.1044 30.3319 40.3744C30.2986 43.4844 31.4848 46.2897 33.4048 48.418C33.7798 48.833 34.1059 49.2849 34.3326 49.7949L35.4784 52.3666C35.7917 53.0749 35.0073 53.7984 34.3423 53.4017C30.3636 51.0232 27.6354 46.9226 27.1093 42.168L25.3319 42.168C24.4119 42.168 23.6652 41.4213 23.6652 40.5013C23.6652 39.5813 24.4119 38.8347 25.3319 38.8347L27.093 38.8347C27.8538 31.845 33.3435 26.3638 40.3319 25.6022L40.3319 23.8347C40.3319 22.9147 41.0786 22.168 41.9986 22.168C42.9186 22.168 43.6652 22.9147 43.6652 23.8347L43.6652 25.599C50.5301 26.3865 56.0859 32.0063 56.8846 38.8347L58.6652 38.8347Z"
            fill="white" />
        <path
            d="M48.6587 45.0456C48.7372 44.2307 47.8673 43.5468 47.0507 43.9551L41.9986 46.4779L36.9465 43.9551C36.0132 43.4884 35.0078 44.4471 35.4328 45.4004L40.8853 58.112C41.3136 59.072 42.6835 59.072 43.1119 58.112L48.5643 45.4004C48.6172 45.2815 48.6475 45.162 48.6587 45.0456Z"
            fill="#00FFF0" />
    </g>
    <defs>
        <filter id="filter0_d_64_7198" x="0.665253" y="0.167999" width="82.6667" height="82.664"
            filterUnits="userSpaceOnUse" color-interpolation-filters="sRGB">
            <feFlood flood-opacity="0" result="BackgroundImageFix" />
            <feColorMatrix in="SourceAlpha" type="matrix" values="0 0 0 0 0 0 0 0 0 0 0 0 0 0 0 0 0 0 127 0"
                result="hardAlpha" />
            <feOffset dy="1" />
            <feGaussianBlur stdDeviation="11.5" />
            <feComposite in2="hardAlpha" operator="out" />
            <feColorMatrix type="matrix" values="0 0 0 0 0 0 0 0 0 0.94 0 0 0 0 1 0 0 0 1 0" />
            <feBlend mode="normal" in2="BackgroundImageFix" result="effect1_dropShadow_64_7198" />
            <feBlend mode="normal" in="SourceGraphic" in2="effect1_dropShadow_64_7198" result="shape" />
        </filter>
    </defs>
</svg>