<svg width="82" height="87" viewBox="0 0 82 87" fill="none" xmlns="http://www.w3.org/2000/svg">
<g id="hat down" filter="url(#filter0_d_142_11754)">
<path fill-rule="evenodd" clip-rule="evenodd" d="M41 43.622C38.6061 43.622 36.4294 44.0365 34.7643 44.7682C33.6032 45.3001 32.7531 45.9349 32.1125 46.8993C30.7979 47.2328 29.5697 47.6405 28.4804 48.1102C25.2069 49.5214 23 51.5829 23 53.9545C23 56.326 25.2069 58.3714 28.4804 59.7826C31.7538 61.1939 36.1623 62.0428 41 62.0428C45.8377 62.0428 50.2462 61.1939 53.5196 59.7826C56.7931 58.3714 59 56.326 59 53.9545C59 51.5829 56.7931 49.5214 53.5196 48.1102C52.4303 47.6405 51.2021 47.2328 49.8875 46.8993C49.2921 45.8821 48.1618 45.1808 47.2357 44.7682C45.5706 44.0365 43.3939 43.622 41 43.622ZM30.7786 52.5176L31.5821 48.9012C31.0394 49.0736 30.4057 49.3078 29.7822 49.5632C26.9837 50.7696 25.4429 52.3315 25.4429 53.9545C25.4429 55.5774 26.9837 57.1231 29.7822 58.3296C32.5807 59.5361 36.5722 60.3153 41 60.3153C45.4278 60.3153 49.4194 59.5361 52.2179 58.3296C55.0164 57.1231 56.5572 55.5774 56.5572 53.9545C56.5572 52.3315 55.0164 50.7696 52.2179 49.5632C51.6666 49.3255 51.0561 49.1028 50.4179 48.9012L51.2054 52.5176C51.2144 52.5607 51.2266 52.6028 51.2388 52.6449C51.2647 52.7337 51.2905 52.8224 51.2857 52.9212C51.2857 53.8684 50.7153 54.6203 50.0321 55.1653C49.349 55.7103 48.4951 56.125 47.525 56.473C45.5847 57.1691 43.1857 57.5708 41 57.5708C38.8143 57.5708 36.4153 57.1691 34.475 56.473C33.5049 56.125 32.651 55.7103 31.9679 55.1653C31.2847 54.6203 30.7143 53.8684 30.7143 52.9212C30.7088 52.7841 30.7307 52.6461 30.7786 52.5176ZM34.7643 51.775C34.1938 51.5243 33.6798 51.229 33.2375 50.887L32.7714 52.9535C33.2957 53.7531 34.1711 54.1087 35.0628 54.471L35.1821 54.5195C36.8419 55.115 39.0714 55.5043 41 55.5043C42.9286 55.5043 45.1581 55.115 46.8179 54.5195C47.6323 54.2231 48.7515 53.7586 49.2286 52.9535L48.7625 50.887C48.3202 51.229 47.8062 51.5243 47.2357 51.775C45.5706 52.5068 43.3939 52.9212 41 52.9212C38.6061 52.9212 36.4294 52.5068 34.7643 51.775Z" fill="white"/>
<path d="M38.8464 22.9571C38.3408 23.005 37.9121 23.4802 37.9143 23.9904V34.3228H33.8C33.3863 34.3249 32.9877 34.6042 32.8424 34.9933C32.6971 35.3825 32.8147 35.856 33.125 36.131L40.325 42.3305C40.6954 42.654 41.3046 42.654 41.675 42.3305L48.875 36.131C49.1852 35.856 49.3029 35.3825 49.1576 34.9933C49.0123 34.6042 48.6137 34.3251 48.2 34.3228H44.0857V23.9904C44.0857 23.4494 43.5957 22.9572 43.0571 22.9571H38.8464Z" fill="#00FFF0"/>
</g>
<defs>
<filter id="filter0_d_142_11754" x="0" y="0.957123" width="82" height="85.0857" filterUnits="userSpaceOnUse" color-interpolation-filters="sRGB">
<feFlood flood-opacity="0" result="BackgroundImageFix"/>
<feColorMatrix in="SourceAlpha" type="matrix" values="0 0 0 0 0 0 0 0 0 0 0 0 0 0 0 0 0 0 127 0" result="hardAlpha"/>
<feOffset dy="1"/>
<feGaussianBlur stdDeviation="11.5"/>
<feComposite in2="hardAlpha" operator="out"/>
<feColorMatrix type="matrix" values="0 0 0 0 0 0 0 0 0 0.94 0 0 0 0 1 0 0 0 1 0"/>
<feBlend mode="normal" in2="BackgroundImageFix" result="effect1_dropShadow_142_11754"/>
<feBlend mode="normal" in="SourceGraphic" in2="effect1_dropShadow_142_11754" result="shape"/>
</filter>
</defs>
</svg>
