<svg width="17" height="18" viewBox="0 0 17 18" fill="none" xmlns="http://www.w3.org/2000/svg">
    <path
        d="M7.88778 12.3888L6.92448 11.4255C6.75851 11.2595 6.75851 10.9905 6.92448 10.8245C7.09045 10.6585 7.35955 10.6585 7.52552 10.8245L9.22552 12.5245C9.39149 12.6905 9.39149 12.9595 9.22552 13.1255L7.52552 14.8255C7.35955 14.9915 7.09045 14.9915 6.92448 14.8255C6.75851 14.6595 6.75851 14.3905 6.92448 14.2245L7.90875 13.2402C7.11171 13.2137 6.34361 13.134 5.62017 13.0073C6.23685 15.1996 7.32949 16.65 8.5 16.65C10.2043 16.65 11.7436 13.5749 11.8888 9.61222L10.9255 10.5755C10.7595 10.7415 10.4905 10.7415 10.3245 10.5755C10.1585 10.4095 10.1585 10.1405 10.3245 9.97448L12.0245 8.27448C12.1905 8.10851 12.4595 8.10851 12.6255 8.27448L14.3255 9.97448C14.4915 10.1405 14.4915 10.4095 14.3255 10.5755C14.1595 10.7415 13.8905 10.7415 13.7245 10.5755L12.7402 9.59126C12.5942 13.9854 10.8302 17.5 8.5 17.5C6.77944 17.5 5.36754 15.5838 4.68777 12.8122C1.91619 12.1325 0 10.7206 0 9C0 7.27944 1.91619 5.86754 4.68777 5.18777C5.36754 2.41619 6.77944 0.5 8.5 0.5C9.77685 0.5 10.9024 1.55305 11.6819 3.31133C11.777 3.52591 11.6802 3.77698 11.4656 3.8721C11.251 3.96722 10.9999 3.87038 10.9048 3.6558C10.2468 2.17138 9.36881 1.35 8.5 1.35C7.32949 1.35 6.23685 2.80043 5.62017 4.99266C6.52098 4.83493 7.49105 4.75 8.5 4.75C13.1658 4.75 17 6.56619 17 9C17 10.2769 15.9469 11.4024 14.1887 12.1819C13.9741 12.277 13.723 12.1802 13.6279 11.9656C13.5328 11.751 13.6296 11.4999 13.8442 11.4048C15.3286 10.7468 16.15 9.86881 16.15 9C16.15 7.20883 12.7536 5.6 8.5 5.6C7.39424 5.6 6.34641 5.70872 5.40111 5.90111C5.20872 6.84641 5.1 7.89424 5.1 9C5.1 10.1058 5.20872 11.1536 5.40111 12.0989C6.17015 12.2554 7.00704 12.3565 7.88778 12.3888ZM4.49266 6.12017C2.30043 6.73685 0.85 7.82949 0.85 9C0.85 10.1705 2.30043 11.2631 4.49266 11.8798C4.33493 10.979 4.25 10.009 4.25 9C4.25 7.99105 4.33493 7.02098 4.49266 6.12017Z"
        fill="white" />
    <path
        d="M7.88778 12.3888L6.92448 11.4255C6.75851 11.2595 6.75851 10.9905 6.92448 10.8245C7.09045 10.6585 7.35955 10.6585 7.52552 10.8245L9.22552 12.5245C9.39149 12.6905 9.39149 12.9595 9.22552 13.1255L7.52552 14.8255C7.35955 14.9915 7.09045 14.9915 6.92448 14.8255C6.75851 14.6595 6.75851 14.3905 6.92448 14.2245L7.90875 13.2402C7.11171 13.2137 6.34361 13.134 5.62017 13.0073C6.23685 15.1996 7.32949 16.65 8.5 16.65C10.2043 16.65 11.7436 13.5749 11.8888 9.61222L10.9255 10.5755C10.7595 10.7415 10.4905 10.7415 10.3245 10.5755C10.1585 10.4095 10.1585 10.1405 10.3245 9.97448L12.0245 8.27448C12.1905 8.10851 12.4595 8.10851 12.6255 8.27448L14.3255 9.97448C14.4915 10.1405 14.4915 10.4095 14.3255 10.5755C14.1595 10.7415 13.8905 10.7415 13.7245 10.5755L12.7402 9.59126C12.5942 13.9854 10.8302 17.5 8.5 17.5C6.77944 17.5 5.36754 15.5838 4.68777 12.8122C1.91619 12.1325 0 10.7206 0 9C0 7.27944 1.91619 5.86754 4.68777 5.18777C5.36754 2.41619 6.77944 0.5 8.5 0.5C9.77685 0.5 10.9024 1.55305 11.6819 3.31133C11.777 3.52591 11.6802 3.77698 11.4656 3.8721C11.251 3.96722 10.9999 3.87038 10.9048 3.6558C10.2468 2.17138 9.36881 1.35 8.5 1.35C7.32949 1.35 6.23685 2.80043 5.62017 4.99266C6.52098 4.83493 7.49105 4.75 8.5 4.75C13.1658 4.75 17 6.56619 17 9C17 10.2769 15.9469 11.4024 14.1887 12.1819C13.9741 12.277 13.723 12.1802 13.6279 11.9656C13.5328 11.751 13.6296 11.4999 13.8442 11.4048C15.3286 10.7468 16.15 9.86881 16.15 9C16.15 7.20883 12.7536 5.6 8.5 5.6C7.39424 5.6 6.34641 5.70872 5.40111 5.90111C5.20872 6.84641 5.1 7.89424 5.1 9C5.1 10.1058 5.20872 11.1536 5.40111 12.0989C6.17015 12.2554 7.00704 12.3565 7.88778 12.3888ZM4.49266 6.12017C2.30043 6.73685 0.85 7.82949 0.85 9C0.85 10.1705 2.30043 11.2631 4.49266 11.8798C4.33493 10.979 4.25 10.009 4.25 9C4.25 7.99105 4.33493 7.02098 4.49266 6.12017Z"
        fill="url(#paint0_linear_222_81)" fill-opacity="0.3" />
    <defs>
        <linearGradient id="paint0_linear_222_81" x1="8.5" y1="-3.87879" x2="8.50004" y2="9.25758"
            gradientUnits="userSpaceOnUse">
            <stop offset="0.520833" stop-color="white" stop-opacity="0" />
            <stop offset="1" stop-color="#AD0000" stop-opacity="0.36" />
        </linearGradient>
    </defs>
</svg>