<svg width="17" height="18" viewBox="0 0 17 18" fill="none" xmlns="http://www.w3.org/2000/svg">
<path d="M0.718344 3.43221L2.8922 1.23092C3.85439 0.261473 5.41682 0.254926 6.38114 1.22001L8.79328 3.62807C9.7592 4.5926 9.76346 6.16379 8.80394 7.13268L7.42542 5.77754C7.56508 5.34601 7.3929 4.85174 7.05174 4.50968L5.51703 2.97832C5.03087 2.4955 4.25099 2.49769 3.77123 2.98377L2.46574 4.304C1.98598 4.79009 1.98811 5.57295 2.47108 6.05686L4.00578 7.58931C4.33042 7.91337 4.86349 8.09122 5.27715 7.9772L6.62742 9.33344C5.66629 10.3051 4.10493 10.3094 3.13848 9.34435L0.729004 6.93847C-0.239582 5.9723 -0.24278 4.40275 0.718344 3.43221Z" fill="white"/>
<path d="M0.718344 3.43221L2.8922 1.23092C3.85439 0.261473 5.41682 0.254926 6.38114 1.22001L8.79328 3.62807C9.7592 4.5926 9.76346 6.16379 8.80394 7.13268L7.42542 5.77754C7.56508 5.34601 7.3929 4.85174 7.05174 4.50968L5.51703 2.97832C5.03087 2.4955 4.25099 2.49769 3.77123 2.98377L2.46574 4.304C1.98598 4.79009 1.98811 5.57295 2.47108 6.05686L4.00578 7.58931C4.33042 7.91337 4.86349 8.09122 5.27715 7.9772L6.62742 9.33344C5.66629 10.3051 4.10493 10.3094 3.13848 9.34435L0.729004 6.93847C-0.239582 5.9723 -0.24278 4.40275 0.718344 3.43221Z" fill="url(#paint0_linear_318_213)" fill-opacity="0.3"/>
<path d="M9.55015 12.245C9.43554 12.6668 9.61891 13.2123 9.95101 13.544L11.3844 14.9772C11.8759 15.4682 12.6713 15.4654 13.1606 14.9706L14.4922 13.628C14.9805 13.1338 14.9773 12.3302 14.4858 11.8413L13.0513 10.4082C12.7017 10.0607 12.1995 9.8839 11.7613 10.0323L10.3785 8.63023C11.3573 7.64224 12.9501 7.63733 13.933 8.61932L16.2588 10.9434C17.2429 11.927 17.2477 13.526 16.2695 14.5162L14.0551 16.7568C13.0775 17.7437 11.4857 17.7486 10.5006 16.7666L8.17483 14.4425C7.19185 13.4578 7.18758 11.8599 8.16417 10.8708L9.55015 12.245Z" fill="white"/>
<path d="M9.55015 12.245C9.43554 12.6668 9.61891 13.2123 9.95101 13.544L11.3844 14.9772C11.8759 15.4682 12.6713 15.4654 13.1606 14.9706L14.4922 13.628C14.9805 13.1338 14.9773 12.3302 14.4858 11.8413L13.0513 10.4082C12.7017 10.0607 12.1995 9.8839 11.7613 10.0323L10.3785 8.63023C11.3573 7.64224 12.9501 7.63733 13.933 8.61932L16.2588 10.9434C17.2429 11.927 17.2477 13.526 16.2695 14.5162L14.0551 16.7568C13.0775 17.7437 11.4857 17.7486 10.5006 16.7666L8.17483 14.4425C7.19185 13.4578 7.18758 11.8599 8.16417 10.8708L9.55015 12.245Z" fill="url(#paint1_linear_318_213)" fill-opacity="0.3"/>
<path d="M11.062 11.6057C10.7363 11.9423 10.2033 11.9455 9.87116 11.61L5.89713 7.56422C5.5661 7.22761 5.56396 6.68315 5.89287 6.34546C6.21964 6.00994 6.75164 6.00776 7.08161 6.34218L11.0567 10.3869C11.3872 10.7224 11.3893 11.2669 11.062 11.6057Z" fill="#2FCAFB"/>
<defs>
<linearGradient id="paint0_linear_318_213" x1="4.76034" y1="-1.96376" x2="4.76032" y2="5.42751" gradientUnits="userSpaceOnUse">
<stop offset="0.520833" stop-color="white" stop-opacity="0"/>
<stop offset="1" stop-color="#AD0000" stop-opacity="0.36"/>
</linearGradient>
<linearGradient id="paint1_linear_318_213" x1="12.2173" y1="5.40969" x2="12.2173" y2="12.8387" gradientUnits="userSpaceOnUse">
<stop offset="0.520833" stop-color="white" stop-opacity="0"/>
<stop offset="1" stop-color="#AD0000" stop-opacity="0.36"/>
</linearGradient>
</defs>
</svg>
