<svg width="81" height="34" viewBox="0 0 81 34" fill="none" xmlns="http://www.w3.org/2000/svg">
<g filter="url(#filter0_d_228_207)">
<path fill-rule="evenodd" clip-rule="evenodd" d="M10.219 10.738C10.3595 10.598 10.5498 10.5193 10.7483 10.5193C10.9468 10.5193 11.1371 10.598 11.2776 10.738L16.4903 15.943L21.7031 10.738C21.7717 10.6645 21.8543 10.6056 21.9462 10.5647C22.0381 10.5239 22.1373 10.5019 22.2378 10.5001C22.3384 10.4983 22.4383 10.5168 22.5315 10.5544C22.6248 10.592 22.7095 10.648 22.7806 10.719C22.8518 10.7901 22.9078 10.8746 22.9455 10.9678C22.9832 11.0609 23.0017 11.1606 22.9999 11.261C22.9981 11.3615 22.9761 11.4605 22.9352 11.5522C22.8942 11.644 22.8352 11.7265 22.7616 11.795L17.5489 17L22.7616 22.205C22.8352 22.2735 22.8942 22.356 22.9352 22.4478C22.9761 22.5395 22.9981 22.6385 22.9999 22.739C23.0017 22.8394 22.9832 22.9391 22.9455 23.0322C22.9078 23.1254 22.8518 23.2099 22.7806 23.281C22.7095 23.352 22.6248 23.408 22.5315 23.4456C22.4383 23.4832 22.3384 23.5017 22.2378 23.4999C22.1373 23.4981 22.0381 23.4761 21.9462 23.4353C21.8543 23.3944 21.7717 23.3355 21.7031 23.262L16.4903 18.057L11.2776 23.262C11.1356 23.3941 10.9478 23.466 10.7538 23.4626C10.5597 23.4592 10.3746 23.3807 10.2374 23.2437C10.1002 23.1066 10.0216 22.9218 10.0181 22.728C10.0147 22.5343 10.0867 22.3468 10.219 22.205L15.4318 17L10.219 11.795C10.0788 11.6548 10 11.4647 10 11.2665C10 11.0683 10.0788 10.8782 10.219 10.738Z" fill="#DEFDFF"/>
</g>
<g filter="url(#filter1_d_228_207)">
<path d="M36.7491 12.874C37.1304 12.874 37.4554 12.8827 37.7241 12.9C38.0014 12.9173 38.2528 12.9477 38.4781 12.991C38.7121 13.0257 38.9504 13.0733 39.1931 13.134L39.0761 14.005C38.8161 13.979 38.5734 13.9573 38.3481 13.94C38.1314 13.9227 37.8974 13.9097 37.6461 13.901C37.3948 13.8923 37.0958 13.888 36.7491 13.888C36.1684 13.888 35.7091 14.0007 35.3711 14.226C35.0331 14.4513 34.7904 14.8283 34.6431 15.357C34.5044 15.8857 34.4351 16.605 34.4351 17.515C34.4351 18.425 34.5044 19.1443 34.6431 19.673C34.7904 20.2017 35.0331 20.5787 35.3711 20.804C35.7091 21.0293 36.1684 21.142 36.7491 21.142C37.3038 21.142 37.7674 21.1333 38.1401 21.116C38.5214 21.09 38.8941 21.051 39.2581 20.999L39.3751 21.857C39.0024 21.961 38.6168 22.0347 38.2181 22.078C37.8281 22.13 37.3384 22.156 36.7491 22.156C35.8911 22.156 35.2021 22.0087 34.6821 21.714C34.1708 21.4107 33.7981 20.921 33.5641 20.245C33.3388 19.569 33.2261 18.659 33.2261 17.515C33.2261 16.371 33.3388 15.461 33.5641 14.785C33.7981 14.109 34.1708 13.6237 34.6821 13.329C35.2021 13.0257 35.8911 12.874 36.7491 12.874ZM42.0832 13.03V20.18C42.0832 20.4747 42.1525 20.6913 42.2912 20.83C42.4385 20.9687 42.6595 21.038 42.9542 21.038H46.1912L46.2432 21.922C45.6798 21.9653 45.1035 21.9913 44.5142 22C43.9335 22.0087 43.3528 22.013 42.7722 22.013C42.1135 22.013 41.6455 21.8527 41.3682 21.532C41.0908 21.2113 40.9522 20.8083 40.9522 20.323V13.03H42.0832ZM50.6638 12.861C51.3138 12.861 51.8641 12.939 52.3148 13.095C52.7741 13.251 53.1381 13.511 53.4068 13.875C53.6841 14.2303 53.8834 14.707 54.0048 15.305C54.1348 15.903 54.1998 16.6397 54.1998 17.515C54.1998 18.3903 54.1348 19.127 54.0048 19.725C53.8834 20.323 53.6841 20.804 53.4068 21.168C53.1381 21.5233 52.7741 21.779 52.3148 21.935C51.8641 22.091 51.3138 22.169 50.6638 22.169C50.0138 22.169 49.4591 22.091 48.9998 21.935C48.5491 21.779 48.1851 21.5233 47.9078 21.168C47.6304 20.804 47.4268 20.323 47.2968 19.725C47.1754 19.127 47.1148 18.3903 47.1148 17.515C47.1148 16.6397 47.1754 15.903 47.2968 15.305C47.4268 14.707 47.6304 14.2303 47.9078 13.875C48.1851 13.511 48.5491 13.251 48.9998 13.095C49.4591 12.939 50.0138 12.861 50.6638 12.861ZM50.6638 13.888C50.0744 13.888 49.6064 14.0007 49.2598 14.226C48.9218 14.4513 48.6791 14.8283 48.5318 15.357C48.3931 15.877 48.3238 16.5963 48.3238 17.515C48.3238 18.425 48.3931 19.1443 48.5318 19.673C48.6791 20.2017 48.9218 20.5787 49.2598 20.804C49.6064 21.0293 50.0744 21.142 50.6638 21.142C51.2531 21.142 51.7168 21.0293 52.0548 20.804C52.4014 20.5787 52.6441 20.2017 52.7828 19.673C52.9301 19.1443 53.0038 18.425 53.0038 17.515C53.0038 16.5963 52.9301 15.877 52.7828 15.357C52.6441 14.8283 52.4014 14.4513 52.0548 14.226C51.7168 14.0007 51.2531 13.888 50.6638 13.888ZM58.6324 12.874C59.057 12.8827 59.4947 12.9043 59.9454 12.939C60.396 12.9737 60.8467 13.0387 61.2974 13.134L61.2194 13.966C60.8467 13.9487 60.435 13.9357 59.9844 13.927C59.5337 13.9097 59.1004 13.901 58.6844 13.901C58.3637 13.901 58.0864 13.914 57.8524 13.94C57.627 13.9573 57.4407 14.0093 57.2934 14.096C57.146 14.174 57.0377 14.3083 56.9684 14.499C56.9077 14.681 56.8774 14.9367 56.8774 15.266C56.8774 15.76 56.964 16.1067 57.1374 16.306C57.3194 16.4967 57.6097 16.6397 58.0084 16.735L59.8284 17.19C60.5217 17.3547 60.994 17.645 61.2454 18.061C61.5054 18.4683 61.6354 19.0187 61.6354 19.712C61.6354 20.232 61.5747 20.6523 61.4534 20.973C61.3407 21.2937 61.163 21.5407 60.9204 21.714C60.6777 21.8787 60.3657 21.9913 59.9844 22.052C59.603 22.1213 59.1524 22.156 58.6324 22.156C58.3377 22.156 57.952 22.143 57.4754 22.117C57.0074 22.091 56.4657 22.0217 55.8504 21.909L55.9284 21.064C56.4397 21.0813 56.8514 21.0987 57.1634 21.116C57.4754 21.1247 57.744 21.129 57.9694 21.129C58.1947 21.129 58.4287 21.129 58.6714 21.129C59.1307 21.129 59.4904 21.0943 59.7504 21.025C60.019 20.9557 60.2054 20.817 60.3094 20.609C60.422 20.401 60.4784 20.0933 60.4784 19.686C60.4784 19.3393 60.4394 19.0707 60.3614 18.88C60.2834 18.6893 60.1577 18.5463 59.9844 18.451C59.8197 18.347 59.6074 18.2647 59.3474 18.204L57.4884 17.736C56.8384 17.5713 56.379 17.2853 56.1104 16.878C55.8504 16.4707 55.7204 15.9247 55.7204 15.24C55.7204 14.72 55.7767 14.304 55.8894 13.992C56.0107 13.6713 56.1884 13.433 56.4224 13.277C56.665 13.1123 56.9684 13.004 57.3324 12.952C57.6964 12.9 58.1297 12.874 58.6324 12.874ZM65.0745 13.017C65.5078 13.017 65.9411 13.017 66.3745 13.017C66.8165 13.017 67.2498 13.0257 67.6745 13.043C68.1078 13.0517 68.5238 13.069 68.9225 13.095L68.8705 13.992H65.2695C65.0008 13.992 64.8015 14.0613 64.6715 14.2C64.5501 14.33 64.4895 14.5467 64.4895 14.85V20.18C64.4895 20.4833 64.5501 20.7043 64.6715 20.843C64.8015 20.9817 65.0008 21.051 65.2695 21.051H68.8705L68.9225 21.935C68.5238 21.961 68.1078 21.9783 67.6745 21.987C67.2498 21.9957 66.8165 22 66.3745 22C65.9411 22.0087 65.5078 22.013 65.0745 22.013C64.5458 22.013 64.1255 21.8743 63.8135 21.597C63.5101 21.311 63.3541 20.9297 63.3455 20.453V14.577C63.3541 14.0917 63.5101 13.7103 63.8135 13.433C64.1255 13.1557 64.5458 13.017 65.0745 13.017ZM63.5795 16.8H68.3635V17.723H63.5795V16.8Z" fill="#CEFCFF"/>
</g>
<rect x="1.25" y="1.25" width="78.5" height="31.5" rx="8.75" stroke="url(#paint0_radial_228_207)" stroke-width="1.5"/>
<defs>
<filter id="filter0_d_228_207" x="-16" y="-11.5" width="65" height="65" filterUnits="userSpaceOnUse" color-interpolation-filters="sRGB">
<feFlood flood-opacity="0" result="BackgroundImageFix"/>
<feColorMatrix in="SourceAlpha" type="matrix" values="0 0 0 0 0 0 0 0 0 0 0 0 0 0 0 0 0 0 127 0" result="hardAlpha"/>
<feOffset dy="4"/>
<feGaussianBlur stdDeviation="13"/>
<feComposite in2="hardAlpha" operator="out"/>
<feColorMatrix type="matrix" values="0 0 0 0 0 0 0 0 0 0.94 0 0 0 0 1 0 0 0 0.69 0"/>
<feBlend mode="normal" in2="BackgroundImageFix" result="effect1_dropShadow_228_207"/>
<feBlend mode="normal" in="SourceGraphic" in2="effect1_dropShadow_228_207" result="shape"/>
</filter>
<filter id="filter1_d_228_207" x="-4.77386" y="-24.139" width="111.696" height="85.308" filterUnits="userSpaceOnUse" color-interpolation-filters="sRGB">
<feFlood flood-opacity="0" result="BackgroundImageFix"/>
<feColorMatrix in="SourceAlpha" type="matrix" values="0 0 0 0 0 0 0 0 0 0 0 0 0 0 0 0 0 0 127 0" result="hardAlpha"/>
<feOffset dy="1"/>
<feGaussianBlur stdDeviation="19"/>
<feComposite in2="hardAlpha" operator="out"/>
<feColorMatrix type="matrix" values="0 0 0 0 0 0 0 0 0 0.94 0 0 0 0 1 0 0 0 0.31 0"/>
<feBlend mode="normal" in2="BackgroundImageFix" result="effect1_dropShadow_228_207"/>
<feBlend mode="normal" in="SourceGraphic" in2="effect1_dropShadow_228_207" result="shape"/>
</filter>
<radialGradient id="paint0_radial_228_207" cx="0" cy="0" r="1" gradientUnits="userSpaceOnUse" gradientTransform="translate(33.993 88.6667) rotate(-167.51) scale(61.6493 151.015)">
<stop stop-color="#00F0FF"/>
<stop offset="1" stop-color="#00F0FF" stop-opacity="0.06"/>
</radialGradient>
</defs>
</svg>
