<svg  viewBox="0 0 16 18" fill="none" xmlns="http://www.w3.org/2000/svg">
    <path
        d="M14.0977 2.96016L9.25224 0.742192C8.54113 0.419269 7.46619 0.419269 6.75508 0.742192L1.90959 2.96016C0.685819 3.52102 0.503906 4.28584 0.503906 4.69374C0.503906 5.10164 0.685819 5.86646 1.90959 6.42733L6.75508 8.6453C7.11064 8.80676 7.55715 8.89174 8.00366 8.89174C8.45017 8.89174 8.89668 8.80676 9.25224 8.6453L14.0977 6.42733C15.3215 5.86646 15.5034 5.10164 15.5034 4.69374C15.5034 4.28584 15.3298 3.52102 14.0977 2.96016Z"
        fill="white" />
    <path
        d="M8.00413 13.2842C7.68992 13.2842 7.37571 13.2163 7.0863 13.0888L1.51318 10.5394C0.661499 10.1485 0 9.10325 0 8.14298C0 7.79456 0.272868 7.51413 0.611886 7.51413C0.950905 7.51413 1.22377 7.79456 1.22377 8.14298C1.22377 8.60187 1.59587 9.19673 2.0093 9.38368L7.58243 11.9331C7.84702 12.052 8.15297 12.052 8.41757 11.9331L13.9907 9.38368C14.4041 9.19673 14.7762 8.61037 14.7762 8.14298C14.7762 7.79456 15.0491 7.51413 15.3881 7.51413C15.7271 7.51413 16 7.79456 16 8.14298C16 9.09475 15.3385 10.1485 14.4868 10.5394L8.91369 13.0888C8.63255 13.2163 8.31834 13.2842 8.00413 13.2842Z"
        fill="white" />
    <path
        d="M8.00413 17.5C7.68992 17.5 7.37571 17.432 7.0863 17.3046L1.51318 14.7552C0.595349 14.3388 0 13.3955 0 12.3587C0 12.0103 0.272868 11.7299 0.611886 11.7299C0.950905 11.7299 1.22377 12.0103 1.22377 12.3587C1.22377 12.8941 1.52972 13.3785 2.0093 13.5994L7.58243 16.1488C7.84702 16.2678 8.15297 16.2678 8.41757 16.1488L13.9907 13.5994C14.462 13.387 14.7762 12.8941 14.7762 12.3587C14.7762 12.0103 15.0491 11.7299 15.3881 11.7299C15.7271 11.7299 16 12.0103 16 12.3587C16 13.3955 15.4047 14.3303 14.4868 14.7552L8.91369 17.3046C8.63255 17.432 8.31834 17.5 8.00413 17.5Z"
        fill="white" />
</svg>